<svg width="682" height="100" viewBox="0 0 682 100" xmlns="http://www.w3.org/2000/svg" xmlns:xlink="http://www.w3.org/1999/xlink"><title>Page 1</title><desc>Created using Figma</desc><use xlink:href="#a" transform="translate(651 71.5)" fill-opacity=".12"/><use xlink:href="#b" transform="translate(2 2)" fill-opacity=".12"/><use xlink:href="#c" transform="translate(2 2)" fill-opacity=".15"/><defs><path id="a" d="M29.5 26.5V28H31v-1.5h-1.5zM28 0v26.5h3V0h-3zm1.5 25H0v3h29.5v-3z"/><path id="b" d="M0 0v-1.5h-1.5V0H0zm34.5-1.5H0v3h34.5v-3zM-1.5 0v32.5h3V0h-3z"/><path id="c" d="M46-1a1 1 0 1 0 0 2v-2zm633 1h1a1 1 0 0 0-1-1v1zm-1 60a1 1 0 0 0 2 0h-2zm-35 37a1 1 0 0 0 0-2v2zM0 96h-1a1 1 0 0 0 1 1v-1zm1-55a1 1 0 1 0-2 0h2zM47.507 1a1 1 0 1 0 0-2v2zm6.029-2a1 1 0 1 0 0 2v-2zm3.014 2a1 1 0 1 0 0-2v2zm6.029-2a1 1 0 1 0 0 2v-2zm3.014 2a1 1 0 0 0 0-2v2zm6.028-2a1 1 0 1 0 0 2v-2zm3.015 2a1 1 0 1 0 0-2v2zm6.028-2a1 1 0 1 0 0 2v-2zm3.015 2a1 1 0 1 0 0-2v2zm6.028-2a1 1 0 0 0 0 2v-2zm3.014 2a1 1 0 1 0 0-2v2zm6.029-2a1 1 0 1 0 0 2v-2zm3.014 2a1 1 0 1 0 0-2v2zm6.029-2a1 1 0 0 0 0 2v-2zm3.014 2a1 1 0 0 0 0-2v2zm6.029-2a1 1 0 1 0 0 2v-2zm3.014 2a1 1 0 0 0 0-2v2zm6.029-2a1 1 0 1 0 0 2v-2zm3.014 2a1 1 0 0 0 0-2v2zm6.028-2a1 1 0 0 0 0 2v-2zm3.015 2a1 1 0 0 0 0-2v2zm6.028-2a1 1 0 0 0 0 2v-2zm3.015 2a1 1 0 0 0 0-2v2zm6.028-2a1 1 0 0 0 0 2v-2zm3.014 2a1 1 0 1 0 0-2v2zm6.029-2a1 1 0 0 0 0 2v-2zm3.014 2a1 1 0 1 0 0-2v2zm6.029-2a1 1 0 0 0 0 2v-2zm3.014 2a1 1 0 0 0 0-2v2zm6.029-2a1 1 0 1 0 0 2v-2zm3.014 2a1 1 0 0 0 0-2v2zm6.029-2a1 1 0 1 0 0 2v-2zm3.014 2a1 1 0 0 0 0-2v2zm6.028-2a1 1 0 0 0 0 2v-2zm3.015 2a1 1 0 0 0 0-2v2zm6.028-2a1 1 0 0 0 0 2v-2zm3.015 2a1 1 0 0 0 0-2v2zm6.028-2a1 1 0 0 0 0 2v-2zm3.014 2a1 1 0 1 0 0-2v2zm6.029-2a1 1 0 0 0 0 2v-2zm3.014 2a1 1 0 0 0 0-2v2zm6.029-2a1 1 0 1 0 0 2v-2zm3.014 2a1 1 0 0 0 0-2v2zm6.029-2a1 1 0 1 0 0 2v-2zm3.014 2a1 1 0 0 0 0-2v2zm6.028-2a1 1 0 0 0 0 2v-2zm3.015 2a1 1 0 0 0 0-2v2zm6.028-2a1 1 0 0 0 0 2v-2zm3.015 2a1 1 0 0 0 0-2v2zm6.028-2a1 1 0 0 0 0 2v-2zm3.014 2a1 1 0 1 0 0-2v2zm6.029-2a1 1 0 0 0 0 2v-2zm3.014 2a1 1 0 1 0 0-2v2zm6.029-2a1 1 0 0 0 0 2v-2zm3.014 2a1 1 0 0 0 0-2v2zm6.029-2a1 1 0 1 0 0 2v-2zm3.014 2a1 1 0 0 0 0-2v2zm6.029-2a1 1 0 1 0 0 2v-2zm3.014 2a1 1 0 0 0 0-2v2zm6.028-2a1 1 0 0 0 0 2v-2zm3.015 2a1 1 0 0 0 0-2v2zm6.028-2a1 1 0 0 0 0 2v-2zm3.015 2a1 1 0 0 0 0-2v2zm6.028-2a1 1 0 0 0 0 2v-2zm3.014 2a1 1 0 1 0 0-2v2zm6.029-2a1 1 0 0 0 0 2v-2zm3.014 2a1 1 0 1 0 0-2v2zm6.029-2a1 1 0 0 0 0 2v-2zm3.014 2a1 1 0 0 0 0-2v2zm6.029-2a1 1 0 1 0 0 2v-2zm3.014 2a1 1 0 0 0 0-2v2zm6.028-2a1 1 0 0 0 0 2v-2zm3.015 2a1 1 0 0 0 0-2v2zm6.028-2a1 1 0 0 0 0 2v-2zm3.015 2a1 1 0 0 0 0-2v2zm6.028-2a1 1 0 0 0 0 2v-2zm3.014 2a1 1 0 1 0 0-2v2zm6.029-2a1 1 0 0 0 0 2v-2zm3.014 2a1 1 0 1 0 0-2v2zm6.029-2a1 1 0 0 0 0 2v-2zm3.014 2a1 1 0 0 0 0-2v2zm6.029-2a1 1 0 1 0 0 2v-2zm3.014 2a1 1 0 0 0 0-2v2zm6.029-2a1 1 0 1 0 0 2v-2zm3.014 2a1 1 0 0 0 0-2v2zm6.028-2a1 1 0 0 0 0 2v-2zm3.015 2a1 1 0 0 0 0-2v2zm6.028-2a1 1 0 0 0 0 2v-2zm3.015 2a1 1 0 0 0 0-2v2zm6.028-2a1 1 0 0 0 0 2v-2zm3.014 2a1 1 0 1 0 0-2v2zm6.029-2a1 1 0 0 0 0 2v-2zm3.014 2a1 1 0 1 0 0-2v2zm6.029-2a1 1 0 1 0 0 2v-2zm3.014 2a1 1 0 0 0 0-2v2zm6.029-2a1 1 0 1 0 0 2v-2zm3.014 2a1 1 0 0 0 0-2v2zm6.028-2a1 1 0 0 0 0 2v-2zm3.015 2a1 1 0 0 0 0-2v2zm6.028-2a1 1 0 0 0 0 2v-2zm3.015 2a1 1 0 0 0 0-2v2zm6.028-2a1 1 0 0 0 0 2v-2zm3.014 2a1 1 0 1 0 0-2v2zm6.029-2a1 1 0 0 0 0 2v-2zm3.014 2a1 1 0 1 0 0-2v2zm6.029-2a1 1 0 0 0 0 2v-2zm3.014 2a1 1 0 0 0 0-2v2zm6.029-2a1 1 0 1 0 0 2v-2zm3.014 2a1 1 0 0 0 0-2v2zm6.029-2a1 1 0 1 0 0 2v-2zm3.014 2a1 1 0 0 0 0-2v2zm6.028-2a1 1 0 0 0 0 2v-2zm3.015 2a1 1 0 0 0 0-2v2zm6.028-2a1 1 0 0 0 0 2v-2zm3.015 2a1 1 0 0 0 0-2v2zm6.028-2a1 1 0 0 0 0 2v-2zm3.014 2a1 1 0 1 0 0-2v2zm6.029-2a1 1 0 0 0 0 2v-2zm3.014 2a1 1 0 1 0 0-2v2zm6.029-2a1 1 0 0 0 0 2v-2zm3.014 2a1 1 0 0 0 0-2v2zm6.029-2a1 1 0 1 0 0 2v-2zm3.014 2a1 1 0 0 0 0-2v2zm6.029-2a1 1 0 1 0 0 2v-2zm3.014 2a1 1 0 0 0 0-2v2zm6.028-2a1 1 0 0 0 0 2v-2zm3.015 2a1 1 0 0 0 0-2v2zm6.028-2a1 1 0 0 0 0 2v-2zm3.015 2a1 1 0 0 0 0-2v2zm6.028-2a1 1 0 0 0 0 2v-2zm3.014 2a1 1 0 1 0 0-2v2zm6.029-2a1 1 0 0 0 0 2v-2zm3.014 2a1 1 0 1 0 0-2v2zm6.029-2a1 1 0 1 0 0 2v-2zm3.014 2a1 1 0 0 0 0-2v2zm6.029-2a1 1 0 1 0 0 2v-2zm3.014 2a1 1 0 0 0 0-2v2zm6.028-2a1 1 0 0 0 0 2v-2zm3.015 2a1 1 0 0 0 0-2v2zm6.028-2a1 1 0 0 0 0 2v-2zM678 1.429a1 1 0 0 0 2 0h-2zm2 5.714a1 1 0 0 0-2 0h2zM678 10a1 1 0 0 0 2 0h-2zm2 5.714a1 1 0 0 0-2 0h2zm-2 2.857a1 1 0 0 0 2 0h-2zm2 5.715a1 1 0 0 0-2 0h2zm-2 2.857a1 1 0 0 0 2 0h-2zm2 5.714a1 1 0 0 0-2 0h2zm-2 2.857a1 1 0 0 0 2 0h-2zm2 5.715a1 1 0 0 0-2 0h2zm-2 2.857a1 1 0 0 0 2 0h-2zM680 50a1 1 0 0 0-2 0h2zm-2 2.857a1 1 0 0 0 2 0h-2zm2 5.714a1 1 0 0 0-2 0h2zM-1 42.528a1 1 0 1 0 2 0h-2zm2 6.11a1 1 0 1 0-2 0h2zm-2 3.056a1 1 0 1 0 2 0h-2zm2 6.112a1 1 0 1 0-2 0h2zm-2 3.055a1 1 0 1 0 2 0h-2zm2 6.111a1 1 0 1 0-2 0h2zm-2 3.056a1 1 0 1 0 2 0h-2zm2 6.11a1 1 0 1 0-2 0h2zm-2 3.056a1 1 0 1 0 2 0h-2zm2 6.112a1 1 0 1 0-2 0h2zm-2 3.055a1 1 0 1 0 2 0h-2zm2 6.111a1 1 0 1 0-2 0h2zM1.51 97a1 1 0 1 0 0-2v2zm6.037-2a1 1 0 1 0 0 2v-2zm3.019 2a1 1 0 1 0 0-2v2zm6.037-2a1 1 0 1 0 0 2v-2zm3.02 2a1 1 0 1 0 0-2v2zm6.037-2a1 1 0 1 0 0 2v-2zm3.018 2a1 1 0 1 0 0-2v2zm6.038-2a1 1 0 1 0 0 2v-2zm3.019 2a1 1 0 1 0 0-2v2zm6.037-2a1 1 0 1 0 0 2v-2zm3.02 2a1 1 0 1 0 0-2v2zm6.037-2a1 1 0 0 0 0 2v-2zm3.018 2a1 1 0 1 0 0-2v2zm6.038-2a1 1 0 1 0 0 2v-2zm3.019 2a1 1 0 0 0 0-2v2zm6.037-2a1 1 0 1 0 0 2v-2zm3.02 2a1 1 0 1 0 0-2v2zm6.037-2a1 1 0 1 0 0 2v-2zm3.018 2a1 1 0 1 0 0-2v2zm6.038-2a1 1 0 1 0 0 2v-2zm3.019 2a1 1 0 1 0 0-2v2zm6.037-2a1 1 0 1 0 0 2v-2zm3.019 2a1 1 0 0 0 0-2v2zm6.038-2a1 1 0 1 0 0 2v-2zm3.018 2a1 1 0 1 0 0-2v2zm6.038-2a1 1 0 0 0 0 2v-2zm3.019 2a1 1 0 0 0 0-2v2zm6.037-2a1 1 0 0 0 0 2v-2zm3.019 2a1 1 0 0 0 0-2v2zm6.038-2a1 1 0 1 0 0 2v-2zm3.018 2a1 1 0 1 0 0-2v2zm6.038-2a1 1 0 0 0 0 2v-2zm3.019 2a1 1 0 0 0 0-2v2zm6.037-2a1 1 0 0 0 0 2v-2zm3.019 2a1 1 0 0 0 0-2v2zm6.038-2a1 1 0 1 0 0 2v-2zm3.018 2a1 1 0 1 0 0-2v2zm6.038-2a1 1 0 0 0 0 2v-2zm3.019 2a1 1 0 0 0 0-2v2zm6.037-2a1 1 0 0 0 0 2v-2zm3.019 2a1 1 0 0 0 0-2v2zm6.038-2a1 1 0 1 0 0 2v-2zm3.018 2a1 1 0 1 0 0-2v2zm6.038-2a1 1 0 0 0 0 2v-2zm3.019 2a1 1 0 0 0 0-2v2zm6.037-2a1 1 0 0 0 0 2v-2zm3.019 2a1 1 0 0 0 0-2v2zm6.038-2a1 1 0 1 0 0 2v-2zm3.018 2a1 1 0 1 0 0-2v2zm6.038-2a1 1 0 0 0 0 2v-2zm3.019 2a1 1 0 0 0 0-2v2zm6.037-2a1 1 0 0 0 0 2v-2zm3.019 2a1 1 0 0 0 0-2v2zm6.038-2a1 1 0 1 0 0 2v-2zm3.018 2a1 1 0 1 0 0-2v2zm6.038-2a1 1 0 0 0 0 2v-2zm3.019 2a1 1 0 0 0 0-2v2zm6.037-2a1 1 0 0 0 0 2v-2zm3.019 2a1 1 0 0 0 0-2v2zm6.038-2a1 1 0 1 0 0 2v-2zm3.018 2a1 1 0 1 0 0-2v2zm6.038-2a1 1 0 0 0 0 2v-2zm3.019 2a1 1 0 0 0 0-2v2zm6.037-2a1 1 0 0 0 0 2v-2zm3.019 2a1 1 0 0 0 0-2v2zm6.038-2a1 1 0 1 0 0 2v-2zm3.018 2a1 1 0 1 0 0-2v2zm6.038-2a1 1 0 0 0 0 2v-2zm3.019 2a1 1 0 0 0 0-2v2zm6.037-2a1 1 0 0 0 0 2v-2zm3.019 2a1 1 0 0 0 0-2v2zm6.038-2a1 1 0 1 0 0 2v-2zm3.018 2a1 1 0 1 0 0-2v2zm6.038-2a1 1 0 0 0 0 2v-2zm3.019 2a1 1 0 0 0 0-2v2zm6.037-2a1 1 0 0 0 0 2v-2zm3.019 2a1 1 0 0 0 0-2v2zm6.038-2a1 1 0 1 0 0 2v-2zm3.018 2a1 1 0 1 0 0-2v2zm6.038-2a1 1 0 0 0 0 2v-2zm3.019 2a1 1 0 0 0 0-2v2zm6.037-2a1 1 0 0 0 0 2v-2zm3.019 2a1 1 0 0 0 0-2v2zm6.038-2a1 1 0 1 0 0 2v-2zm3.018 2a1 1 0 1 0 0-2v2zm6.038-2a1 1 0 0 0 0 2v-2zm3.019 2a1 1 0 0 0 0-2v2zm6.037-2a1 1 0 0 0 0 2v-2zm3.019 2a1 1 0 0 0 0-2v2zm6.038-2a1 1 0 1 0 0 2v-2zm3.018 2a1 1 0 1 0 0-2v2zm6.038-2a1 1 0 0 0 0 2v-2zm3.019 2a1 1 0 0 0 0-2v2zm6.037-2a1 1 0 0 0 0 2v-2zm3.019 2a1 1 0 0 0 0-2v2zm6.038-2a1 1 0 1 0 0 2v-2zm3.019 2a1 1 0 0 0 0-2v2zm6.037-2a1 1 0 0 0 0 2v-2zm3.019 2a1 1 0 0 0 0-2v2zm6.037-2a1 1 0 0 0 0 2v-2zm3.019 2a1 1 0 0 0 0-2v2zm6.038-2a1 1 0 1 0 0 2v-2zm3.019 2a1 1 0 0 0 0-2v2zm6.037-2a1 1 0 0 0 0 2v-2zm3.019 2a1 1 0 0 0 0-2v2zm6.037-2a1 1 0 0 0 0 2v-2zm3.019 2a1 1 0 0 0 0-2v2zm6.038-2a1 1 0 1 0 0 2v-2zm3.019 2a1 1 0 0 0 0-2v2zm6.037-2a1 1 0 0 0 0 2v-2zm3.019 2a1 1 0 0 0 0-2v2zm6.037-2a1 1 0 0 0 0 2v-2zm3.019 2a1 1 0 0 0 0-2v2zm6.038-2a1 1 0 1 0 0 2v-2zm3.019 2a1 1 0 0 0 0-2v2zm6.037-2a1 1 0 0 0 0 2v-2zm3.019 2a1 1 0 0 0 0-2v2zm6.037-2a1 1 0 0 0 0 2v-2zm3.019 2a1 1 0 0 0 0-2v2zm6.038-2a1 1 0 1 0 0 2v-2zm3.019 2a1 1 0 0 0 0-2v2zm6.037-2a1 1 0 0 0 0 2v-2zm3.019 2a1 1 0 0 0 0-2v2zm6.037-2a1 1 0 0 0 0 2v-2zm3.019 2a1 1 0 1 0 0-2v2zm6.038-2a1 1 0 1 0 0 2v-2zm3.019 2a1 1 0 0 0 0-2v2zm6.037-2a1 1 0 0 0 0 2v-2zm3.019 2a1 1 0 0 0 0-2v2zm6.037-2a1 1 0 0 0 0 2v-2zm3.019 2a1 1 0 1 0 0-2v2zm6.038-2a1 1 0 1 0 0 2v-2zm3.019 2a1 1 0 0 0 0-2v2zm6.037-2a1 1 0 0 0 0 2v-2zm3.019 2a1 1 0 0 0 0-2v2zm6.037-2a1 1 0 0 0 0 2v-2zm3.019 2a1 1 0 0 0 0-2v2zm6.038-2a1 1 0 1 0 0 2v-2zm3.019 2a1 1 0 0 0 0-2v2zm6.037-2a1 1 0 0 0 0 2v-2zm3.019 2a1 1 0 0 0 0-2v2zm6.037-2a1 1 0 0 0 0 2v-2zM46 1h1.507v-2H46v2zm7.536 0h3.014v-2h-3.014v2zm9.043 0h3.014v-2h-3.014v2zm9.042 0h3.015v-2H71.62v2zm9.043 0h3.015v-2h-3.015v2zm9.043 0h3.014v-2h-3.014v2zm9.043 0h3.014v-2H98.75v2zm9.043 0h3.014v-2h-3.014v2zm9.043 0h3.014v-2h-3.014v2zm9.043 0h3.014v-2h-3.014v2zm9.042 0h3.015v-2h-3.015v2zm9.043 0h3.015v-2h-3.015v2zm9.043 0h3.014v-2h-3.014v2zm9.043 0h3.014v-2h-3.014v2zm9.043 0h3.014v-2h-3.014v2zm9.043 0h3.014v-2h-3.014v2zm9.043 0h3.014v-2h-3.014v2zm9.042 0h3.015v-2h-3.015v2zm9.043 0h3.015v-2h-3.015v2zm9.043 0h3.014v-2h-3.014v2zm9.043 0h3.014v-2h-3.014v2zm9.043 0h3.014v-2h-3.014v2zm9.043 0h3.014v-2h-3.014v2zm9.042 0h3.015v-2h-3.015v2zm9.043 0h3.015v-2h-3.015v2zm9.043 0h3.014v-2h-3.014v2zm9.043 0h3.014v-2h-3.014v2zm9.043 0h3.014v-2h-3.014v2zm9.043 0h3.014v-2h-3.014v2zm9.043 0h3.014v-2h-3.014v2zm9.042 0h3.015v-2h-3.015v2zm9.043 0h3.015v-2h-3.015v2zm9.043 0h3.014v-2h-3.014v2zm9.043 0h3.014v-2h-3.014v2zm9.043 0h3.014v-2h-3.014v2zm9.043 0h3.014v-2h-3.014v2zm9.042 0h3.015v-2h-3.015v2zm9.043 0h3.015v-2h-3.015v2zm9.043 0h3.014v-2h-3.014v2zm9.043 0h3.014v-2h-3.014v2zm9.043 0h3.014v-2h-3.014v2zm9.043 0h3.014v-2h-3.014v2zm9.043 0h3.014v-2h-3.014v2zm9.042 0h3.015v-2h-3.015v2zm9.043 0h3.015v-2h-3.015v2zm9.043 0h3.014v-2h-3.014v2zm9.043 0h3.014v-2h-3.014v2zm9.043 0h3.014v-2h-3.014v2zm9.043 0h3.014v-2h-3.014v2zm9.042 0h3.015v-2h-3.015v2zm9.043 0h3.015v-2h-3.015v2zm9.043 0h3.014v-2h-3.014v2zm9.043 0h3.014v-2h-3.014v2zm9.043 0h3.014v-2h-3.014v2zm9.043 0h3.014v-2h-3.014v2zm9.043 0h3.014v-2h-3.014v2zm9.042 0h3.015v-2h-3.015v2zm9.043 0h3.015v-2h-3.015v2zm9.043 0h3.014v-2h-3.014v2zm9.043 0h3.014v-2h-3.014v2zm9.043 0h3.014v-2h-3.014v2zm9.043 0h3.014v-2h-3.014v2zm9.043 0h3.014v-2h-3.014v2zm9.042 0h3.015v-2h-3.015v2zm9.043 0h3.015v-2h-3.015v2zm9.043 0h3.014v-2h-3.014v2zm9.043 0h3.014v-2h-3.014v2zm9.043 0h3.014v-2h-3.014v2zm9.043 0h3.014v-2h-3.014v2zm9.042 0h3.015v-2h-3.015v2zm9.043 0H679v-2h-1.508v2zM678 0v1.429h2V0h-2zm0 7.143V10h2V7.143h-2zm0 8.571v2.857h2v-2.857h-2zm0 8.572v2.857h2v-2.857h-2zm0 8.571v2.857h2v-2.857h-2zm0 8.572v2.857h2v-2.857h-2zM678 50v2.857h2V50h-2zm0 8.571V60h2v-1.429h-2zM-1 41v1.528h2V41h-2zm0 7.639v3.055h2V48.64h-2zm0 9.167v3.055h2v-3.055h-2zm0 9.166v3.056h2v-3.056h-2zm0 9.167v3.055h2V76.14h-2zm0 9.167v3.055h2v-3.055h-2zm0 9.166V96h2v-1.528h-2zM0 97h1.51v-2H0v2zm7.547 0h3.019v-2h-3.02v2zm9.056 0h3.02v-2h-3.02v2zm9.057 0h3.018v-2H25.66v2zm9.056 0h3.019v-2h-3.019v2zm9.056 0h3.02v-2h-3.02v2zm9.057 0h3.018v-2H52.83v2zm9.056 0h3.019v-2h-3.019v2zm9.056 0h3.02v-2h-3.02v2zm9.057 0h3.018v-2h-3.018v2zm9.056 0h3.019v-2h-3.019v2zm9.056 0h3.019v-2H98.11v2zm9.057 0h3.018v-2h-3.018v2zm9.056 0h3.019v-2h-3.019v2zm9.056 0h3.019v-2h-3.019v2zm9.057 0h3.018v-2h-3.018v2zm9.056 0h3.019v-2h-3.019v2zm9.056 0h3.019v-2h-3.019v2zm9.057 0h3.018v-2h-3.018v2zm9.056 0h3.019v-2h-3.019v2zm9.056 0h3.019v-2h-3.019v2zm9.057 0h3.018v-2h-3.018v2zm9.056 0h3.019v-2h-3.019v2zm9.056 0h3.019v-2h-3.019v2zm9.057 0h3.018v-2h-3.018v2zm9.056 0h3.019v-2h-3.019v2zm9.056 0h3.019v-2h-3.019v2zm9.057 0h3.018v-2h-3.018v2zm9.056 0h3.019v-2h-3.019v2zm9.056 0h3.019v-2h-3.019v2zm9.057 0h3.018v-2h-3.018v2zm9.056 0h3.019v-2h-3.019v2zm9.056 0h3.019v-2h-3.019v2zm9.057 0h3.018v-2h-3.018v2zm9.056 0h3.019v-2h-3.019v2zm9.056 0h3.019v-2h-3.019v2zm9.057 0h3.018v-2h-3.018v2zm9.056 0h3.019v-2h-3.019v2zm9.056 0h3.019v-2h-3.019v2zm9.057 0h3.018v-2h-3.018v2zm9.056 0h3.019v-2h-3.019v2zm9.056 0h3.019v-2H369.8v2zm9.057 0h3.018v-2h-3.018v2zm9.056 0h3.019v-2h-3.019v2zm9.056 0h3.019v-2h-3.019v2zm9.057 0h3.018v-2h-3.018v2zm9.056 0h3.019v-2h-3.019v2zm9.056 0h3.019v-2h-3.019v2zm9.057 0h3.019v-2h-3.019v2zm9.056 0h3.019v-2h-3.019v2zm9.056 0h3.019v-2h-3.019v2zm9.057 0h3.019v-2h-3.019v2zm9.056 0h3.019v-2h-3.019v2zm9.056 0h3.019v-2h-3.019v2zm9.057 0h3.019v-2h-3.019v2zm9.056 0h3.019v-2h-3.019v2zm9.056 0h3.019v-2h-3.019v2zm9.057 0h3.019v-2h-3.019v2zm9.056 0h3.019v-2h-3.019v2zm9.056 0h3.019v-2h-3.019v2zm9.057 0h3.019v-2h-3.019v2zm9.056 0h3.019v-2h-3.019v2zm9.056 0h3.019v-2h-3.019v2zm9.057 0h3.019v-2h-3.019v2zm9.056 0h3.019v-2h-3.019v2zm9.056 0h3.019v-2h-3.019v2zm9.057 0h3.019v-2h-3.019v2zm9.056 0h3.019v-2h-3.019v2zm9.056 0h3.019v-2h-3.019v2zm9.057 0h3.019v-2h-3.019v2zm9.056 0h3.019v-2h-3.019v2zm9.056 0H643v-2h-1.51v2z"/></defs></svg>