<svg xmlns="http://www.w3.org/2000/svg" viewBox="0 0 90 112.5"><path d="M62.3 13.1h-6.2v-.2c0-1.4-1.2-2.6-2.6-2.6h-4.6C48 7.2 45.3 5 42 5c-3.3 0-6 2.2-6.8 5.2h-4.7c-1.4 0-2.6 1.2-2.6 2.6v.2h-6.2c-3.8 0-7 3.1-7 7v51.6c0 3.8 3.1 7 7 7h26.7c-.6-1.7-.9-3.4-.9-5.2H21.6c-1 0-1.7-.8-1.7-1.7V20c0-1 .8-1.7 1.7-1.7h6.2v.1c0 1.4 1.2 2.6 2.6 2.6h23c1.4 0 2.6-1.2 2.6-2.6v-.1h6.2c1 0 1.7.8 1.7 1.7v36.7c1.8 0 3.6.3 5.2.9V20c.2-3.8-3-6.9-6.8-6.9zm-20.3.8c-1 0-1.8-.8-1.8-1.9s.8-1.8 1.8-1.8 1.9.8 1.9 1.8-.9 1.9-1.9 1.9z"/><path d="M64 62c-6.3 0-11.3 5.1-11.3 11.3 0 6.2 5.1 11.3 11.3 11.3s11.3-5.1 11.3-11.3c.1-6.2-5-11.3-11.3-11.3zm4.9 13.1h-3.1v3.1c0 1-.8 1.7-1.7 1.7-1 0-1.7-.8-1.7-1.7v-3.1h-3.1c-1 0-1.7-.8-1.7-1.7 0-1 .8-1.7 1.7-1.7h3.1v-3.1c0-1 .8-1.7 1.7-1.7 1 0 1.7.8 1.7 1.7v3.1h3.1c1 0 1.7.8 1.7 1.7 0 .9-.7 1.7-1.7 1.7zM57.3 45.2H26.6c-1.4 0-2.6-1.2-2.6-2.6 0-1.4 1.2-2.6 2.6-2.6h30.8c1.4 0 2.6 1.2 2.6 2.6 0 1.5-1.2 2.6-2.7 2.6zm0-9H26.6c-1.4 0-2.6-1.2-2.6-2.6s1.2-2.6 2.6-2.6h30.8c1.4 0 2.6 1.2 2.6 2.6s-1.2 2.6-2.7 2.6zm0 18.1H26.6c-1.4 0-2.6-1.2-2.6-2.6 0-1.4 1.2-2.6 2.6-2.6h30.8c1.4 0 2.6 1.2 2.6 2.6 0 1.4-1.2 2.6-2.7 2.6zm-15.3 9H26.6c-1.4 0-2.6-1.2-2.6-2.6s1.2-2.6 2.6-2.6H42c1.4 0 2.6 1.2 2.6 2.6s-1.2 2.6-2.6 2.6z"/></svg>