<svg xmlns="http://www.w3.org/2000/svg" viewBox="0 0 128 160"><style>.st0{display:none}.st1{display:inline}.st2{fill:none;stroke:#876900;stroke-width:.1;stroke-miterlimit:10}.st3{stroke-linecap:round;stroke-linejoin:round}.st3,.st4,.st5{fill:none;stroke:#876900;stroke-width:6;stroke-miterlimit:10}.st5{stroke-linecap:round}</style><g class="st0"><g class="st1"><path class="st2" d="M0 0h128v128H0zm0 124h128M0 120h128M0 116h128M0 112h128M0 108h128M0 104h128M0 100h128M0 96h128M0 92h128M0 88h128M0 84h128M0 80h128M0 76h128M0 72h128M0 68h128M0 64h128M0 60h128M0 56h128M0 52h128M0 48h128M0 44h128M0 40h128M0 36h128M0 32h128M0 28h128M0 24h128M0 20h128M0 16h128M0 12h128M0 8h128M0 4h128m-4-4v128M120 0v128M116 0v128M112 0v128M108 0v128M104 0v128M100 0v128M96 0v128M92 0v128M88 0v128M84 0v128M80 0v128M76 0v128M72 0v128M68 0v128M64 0v128M60 0v128M56 0v128M52 0v128M48 0v128M44 0v128M40 0v128M36 0v128M32 0v128M28 0v128M24 0v128M20 0v128M16 0v128M12 0v128M8 0v128M4 0v128"/></g></g><path class="st3" d="M12 29.5l52 69 52-69z"/></svg>