<svg width="13" height="13" viewBox="0 0 13 13" xmlns="http://www.w3.org/2000/svg" xmlns:xlink="http://www.w3.org/1999/xlink"><title>Vector</title><desc>Created using Figma</desc><use xlink:href="#a" fill="#2D9CDB"/><defs><path id="a" d="M12.128 3.318A6.556 6.556 0 0 0 9.763.894 6.239 6.239 0 0 0 6.5 0a6.24 6.24 0 0 0-3.263.894A6.554 6.554 0 0 0 .872 3.318 6.644 6.644 0 0 0 0 6.663C0 8.115.413 9.42 1.24 10.58c.826 1.16 1.894 1.962 3.203 2.407.153.03.265.009.339-.06a.343.343 0 0 0 .11-.26l-.005-.47a79.265 79.265 0 0 1-.004-.771l-.194.034a2.293 2.293 0 0 1-.47.03 3.498 3.498 0 0 1-.588-.06 1.3 1.3 0 0 1-.567-.26 1.1 1.1 0 0 1-.373-.534l-.084-.2a2.177 2.177 0 0 0-.267-.441 1.029 1.029 0 0 0-.368-.33l-.06-.044a.627.627 0 0 1-.185-.225c-.017-.04-.003-.074.042-.1a.537.537 0 0 1 .245-.039l.17.026c.112.023.252.092.418.208.167.116.304.266.41.451.13.237.287.418.47.542a.98.98 0 0 0 .555.187 2.4 2.4 0 0 0 .482-.043c.136-.03.263-.073.381-.13.05-.388.19-.686.415-.894a5.667 5.667 0 0 1-.868-.156 3.408 3.408 0 0 1-.795-.339 2.3 2.3 0 0 1-.682-.581c-.18-.231-.328-.535-.444-.911a4.433 4.433 0 0 1-.173-1.301c0-.7.223-1.296.668-1.788-.208-.526-.189-1.116.06-1.77.163-.052.406-.012.727.118.322.13.558.241.707.334.15.092.27.17.36.234A5.872 5.872 0 0 1 6.5 3.218c.558 0 1.1.076 1.625.226l.322-.208c.22-.139.48-.266.778-.382.3-.116.528-.147.686-.095.254.653.276 1.243.067 1.77.446.491.67 1.087.67 1.787 0 .491-.059.926-.174 1.305-.116.38-.265.683-.449.911a2.38 2.38 0 0 1-.685.577 3.414 3.414 0 0 1-.796.339 5.77 5.77 0 0 1-.867.156c.293.26.44.67.44 1.232v1.83a.35.35 0 0 0 .105.26c.07.07.182.09.335.06 1.309-.444 2.377-1.247 3.203-2.407C12.587 9.42 13 8.114 13 6.662a6.649 6.649 0 0 0-.872-3.344z"/></defs></svg>