<svg width="240" height="221" viewBox="0 0 240 221" xmlns="http://www.w3.org/2000/svg" xmlns:xlink="http://www.w3.org/1999/xlink"><title>Page 1</title><desc>Created using Figma</desc><use xlink:href="#a" transform="rotate(-.999 319.58 -2844.963)" fill="#4F4F4F"/><use xlink:href="#b" transform="rotate(-.999 217.604 -188.91)" fill="#4F4F4F"/><use xlink:href="#c" transform="rotate(-6 1554.184 41.844)" fill="#4F4F4F"/><use xlink:href="#d" transform="rotate(-6 1574.31 -121.842)" fill="#FFEC46"/><use xlink:href="#e" transform="rotate(-6 902.192 45.942)" fill="#4F4F4F"/><use xlink:href="#f" transform="rotate(-6 920.812 -146.332)" fill="#FFEC46"/><defs><path id="a" d="M132.797.066c-.527 2.417-1.384 4.205-2.537 5.397l-.824-.53c.89-2.284 1.318-3.609 1.285-3.94l-.23-.364c-.297.033-.692.828-1.186 2.417l-.429.033a1.886 1.886 0 0 0-.23-.762l-.198.034c-3.888 10.892-5.634 15.957-9.225 24.333-.659 2.152-1.219 3.344-1.714 3.576.033.231.165.364.429.33.099 1.06-.165 2.087-.725 3.113-1.68 4.8-2.768 7.449-3.328 7.912l.363 2.285c.033.232-.099.397-.363.397l-.395.033c-.066-.629-.297-.927-.692-.894l-.198.033a9.67 9.67 0 0 0-1.153 2.781l.395-.033c.528-.33.758-.728.725-1.225l.791-.066.428.166c-.362.563-.527 1.026-.494 1.357l.198.364-.494 1.192.033.199c.461-.033.955.1 1.482.43.363-.033.758-.199 1.186-.463.462-.033 2.109-.067 5.008-.067l1.45-.496c1.779-.033 2.043.033 3.591-.1l.626-.066.33-.231.033.198c1.581-.132 1.713-.033 2.965.133l.033.198-.89.066.033.365c.264-.033.494-.1.692-.265.231-.033.363.1.396.364-.363.033-.758.132-1.22.265l-.395-.133c-.626.166-.494.199-.889.232l-.626-.132c0 .099-.033.165-.132.198.033.232.132.364.362.331l.758-.066-.33-.132c0 .1.066.165.198.165l3.262-.298 1.252-.265c0 .1.066.166.165.166l.593-.232 1.12-.1c.889-.065.857-.131 2.735-.43 0-.099.033-.165.131-.165v.166c3.592-.596 3.262-.563 4.02-.828l-.165-.397c-1.021.231-.988.099-1.515.165l-2.735.133-.033-.2 1.516-.198.56-.033.296-.232.033.2c2.142-.2 2.9.363 12.883-1.756.527-.033.494-.496.823-1.423a.965.965 0 0 1-.527-.133c-.824.331-1.252.166-2.833.43-.132 0-.231-.099-.297-.363v-.166l1.516.066c.263-.033.856-.066 1.647-.53.165.1-.132.2.033.166l.264-.033c.164 0 .23-.133.23-.397l-.165-.364c-1.021.099-1.515.132-2.339.595l-.033-.198-1.252.132c-.033-.397-.132-.563-.296-.563l-.659.067c-.758.066-1.12.033-1.483.33 0-.132-.066-.198-.132-.198l-.724.066-.429.232c0-.132-.066-.199-.132-.199l-.263.232-.033-.198-.988-.067-.231.033.033.365.527.132.461-.033c.165.1.363.132.56.132l.429-.198v.165c-2.34.596-2.34.464-3.954.762-.198-.133-.33-.166-.395-.166-.165.166.197.033.098.033-.263.033-.395-.1-.428-.33l.824-.1c.066 0 .099.066.56.165.659-.33.692-.463 1.054-.496l-.033-.364c-2.306.463-1.384.165-4.283.397h-.132l-.033-.364c3.723-.464 2.471-.199 3.723-.563 0 .132.066.199.132.199a.777.777 0 0 1 .527-.232l.264-.033c1.285-.1 1.746.165 4.316-.563v.165l.428-.198.396-.033c-.033-.398.56-.43.725-.464l-.033-.397c-4.514.927-5.7.662-6.952 1.026v-.165c-1.186.231-1.219.099-1.516.132-.099 0-.23.1-.362.232 0-.133-.066-.199-.165-.199-.198 0-.099.066-.264.232l.264-.232-3.921.63c0-.1-.066-.166-.164-.166-1.977.43-1.45.496-4.119.728-.132 0-.296.066-.494.199 0-.1-.066-.166-.198-.166l-1.647.133-1.087.264c0-.099-.066-.165-.198-.165-.626.165-1.153.265-1.582.298h-.032c-.264.033.131-.066-.066-.166l-.33.199c-.494.033-.23-.033-1.878 0-2.899.364-2.57.397-2.899.43l-1.087-.066c0 .1-.033.166-.165.199-1.219-.166-1.845-.364-1.878-.596.165-1.159.428-1.755.856-1.821l.198-.033-.198.397.198-.033c.395-.199.56-.397.56-.596l-.033-.397-.395.033-.033-.364c-.033-.298 0-.53.099-.762l.889-1.423.033.364.429-.033-.033-.364-.231-.365c.297-.264.56-.43.758-.43l-.033-.199-.56.033-.033-.562c1.12-2.384 1.68-3.774 1.647-4.139l.396.166c.263-.033.395-.166.362-.43l-.395.032v-.165a1.568 1.568 0 0 1 .131-.795c.626-.629.89-1.29.824-1.986.132 0 .198.066.198.199.527-.298.922-1.093 1.219-2.417.922-1.689 2.24-5.066 3.954-10.098 3.294-8.906 3.162-9.866 3.624-11.951l-.396.033a1.24 1.24 0 0 1-.164.761c-.264-.1-.495-.165-.626-.165v-.166c-.066-.761.263-1.688.988-2.78h.165l.329 1.29.396-.033c0-.1.098-.596.296-1.556-.033-.198-.165-.298-.461-.33l-.363.23c-.032-.264 0-.96.033-2.118l-.362.066zm-4.744 5.728l.197-.033c-.296.53-.527.827-.758.86l-.032-.562c.164-.034.362-.1.593-.265zm-1.648 3.973c.396-1.623.791-2.55 1.153-2.781l.033.198c-.197 1.523-.527 2.285-.988 2.35l.066.96c-.363.498-.527.895-.494 1.193l-.198.033-.099-1.324c.198-.034.395-.232.527-.63zm-.626 2.152c.033.231-.132.761-.428 1.556l-.198.033-.033-.563c.231-.662.462-.993.659-1.027zM114.94 35.986l.197.364c.297-.033.429-.165.396-.397l-.033-.199-.198.034-.362.198zm5.205 4.337v.166c.297-.033.593-.563.857-1.59l-.396-.132c-.329.894-.461 1.39-.461 1.556zm33.343 1.159v.166l-.33.397.626-.232h.066l-.033-.364h-.131l-.231.199c0-.1.692-.298.165-.398-.099.166.164.199-.132.232zm1.285 1.192l.889-.066c-.033-.232-.593-.298-.79-.298h-.132l.033.364zm-15.749.33l.264.332c0-.1.033-.166.131-.166l.198.365-.824-.1c-.065-.264.033-.397.231-.43zm-2.702.299c.297-.033.495.165.495.43h-.923v-.165c.099-.033.264-.1.428-.265zm2.109-.1l.033.2-.758.065-.033-.198.758-.066zm-7.644.795c0 .1.066.166.198.166 1.219-.232 1.087-.265 1.68-.331.198-.034.297.099.33.33l-3.394.299.33.165-.033-.199-1.285.1-.033-.199 1.153-.1 1.054-.23zm3.493-.298v.166c-.099 0 .329.033.131.198-.724-.066-.757-.132-1.285-.099V43.8l1.154-.099zm.856-.1v.166l-.626.067v-.166l.626-.066zm-21.086 3.38l.033.563c-.198.033-.363-.1-.428-.365v-.165l.395-.033zm28.203-.497l.033.364.659-.066-.264-.165.033.198.659-.265c4.514-.496 5.041-.298 4.975-.827v-.166c-4.547 1.026-5.14.828-6.095.927zm7.051-.629l.659.133-.033-.365-.659-.132.033.364zm-19.505 1.291c.197.1-.231.199.033.166l2.306-.199.033.199c-.659.066-1.087.165-1.219.298 0-.133-.066-.199-.198-.199l-.988.1-.033-.2c.263-.032-.132-.032.066-.165zm10.675-.264l.197.364c.758-.166.33-.133.528-.298 0 .132.065.198.131.198l.527-.033-.032-.397-1.384-.033.033.199zm-13.047 1.423h-.132l-.033-.364h.132l.033.364zm-10.313 1.258l.033.199 6.062-.497-.033-.364-4.843.397-1.021-.132-.198.397zm6.754-.364h.066l-.033-.364h-.066l.033.364zM31.616 17.216c-4.283 5.131-6.49 7.945-6.656 8.508-1.746 1.821-2.602 2.913-2.504 3.278-.46.298-.659.596-.593.927-.131.033-.23-.033-.263-.166-.758 1.225-1.845 1.987-3.328 2.35l-1.548.365c-.198.033-.297.199-.297.463l.033.2.593-.133.033.165-1.318.497-2.34.53-1.218.066c-.165.165.955-.033.527.099l-1.516.364c-.922.232-1.45.133-1.515-.232l-.165.034c.099.364 0 .596-.264.662l.297-.066-.132-.563-2.767.662.296.132c-.033-.132-.165-.165-.428-.1l-.363.299-.428-.1c-.395.232-.659.365-.725.365l-.428-.1c-1.153.663-.297.663-.362.663l.098.364.66-.166 1.02-.066-.098.43c-3.756.994-1.022.43-2.043.662l-.198.034.1.364.592-.133.033.199c-.758.166-1.186.331-1.318.497l-.033-.199c-.988.232-1.976.993-2.965 2.251.165.729-1.977 1.623 8.105-.728.692-.033 1.087-.033 1.186-.066-.033-.133.033-.199.165-.232 1.12-.132.593.066 1.285-.1L13.001 39l-.462.265c-.033-.1.033-.166.132-.199.264.066.527.033.824-.033l.132.563-8.6 13.706-1.91 2.384-.923 3.145.165-.033.922-.397-.296 1.225.098.364.264.33c-.132.034-.165.1-.132.233l.033.198.395-.1c.56-.496.791-.96.725-1.356.626.099 1.022.132 1.22.099l.032.199c-.362.099-.56.397-.593.893l.033.2.198-.034c3.13-3.41 10.74-15.097 16.869-23.043-.198-.86 2.998-2.052 9.588-3.575l.197-.033c.23 1.026-.263 3.542-1.515 7.548-.824 2.417-1.186 3.741-1.153 3.94-1.055 3.211-1.549 4.933-1.483 5.198l-2.34 7.68c-1.515 3.94-2.668 8.079-3.459 12.449.132-.033.363 0 .626.066l.33-.298c.033.132.099.166.263.166l-.132-.563 1.022-.033c.296-.067.56-.464.758-1.16-.033-1.025.164-1.588.626-1.72.626-2.45 1.021-3.709 1.153-3.742.593-2.45 1.021-3.84 1.318-4.204.89-3.179 1.515-4.834 1.944-4.933l.098.397-.626 1.688c-1.12 5-2.273 8.973-3.426 11.886l.33 1.457.197-.033c2.8-6.026 6.787-17.945 12.026-35.756.164-1.556.89-2.781 2.24-3.642l-.296-.298-.033-.165c.593-.133 1.021-.364 1.252-.696-.033-.132-.56-.33-1.582-.596l3.097-13.309c.923-3.972 1.549-7.449 1.878-10.494l-.033-.199a7.155 7.155 0 0 1-1.812-1.688v-.795l-.033-.166-.164.034c-1.911 2.913-5.733 7.978-11.367 15.196zm4.382 3.012c.165.696-.1 1.987-.758 3.874-.198 2.384-1.054 3.74-2.537 4.105l-.033-.198-1.318.496-.593.133c-.296.066-.56.066-.824-.034l-.131-.53c-.033-.198 1.845-2.847 5.732-7.912l.462.066zm-3.031 8.277l.428-.1.099.365c-2.076.629-3.23.96-3.46 1.026-.131.033-.33.133-.56.331-.033-.132-.296-.132-.823-.033-.1-.364 1.35-.894 4.316-1.589zm-20.46 5.562l.46-.1-.098-.396-.461.099.098.397zm6.029-1.59l.098.365-.988.066-.033-.198.923-.232zM7.004 36.286l.033.199-.626.132-.033-.198.626-.133zm-1.153 2.417l.033.166-.758.165-.099-.364.824.033zm1.812-.397l.033.165-1.384.331-.033-.165 1.384-.331zm2.405-.398l.033.2-3.624.827-.099-.364c2.109-.365 1.878-.232 3.69-.663zm18.154-4.237l.297.33c-.429.1-.758.233-.923.398l-.428-.066c-.66.265-1.252.463-1.713.563l-.396.1c-.23.065-.395-.034-.494-.266l2.735-.63.922-.43zm1.944-.43l1.944-.464.033.198c-1.054.232-1.878.497-2.471.795l-.033-.198c.165-.034.33-.166.527-.332zM9.74 38.8l.922-.198.1.364c-.396.1-.1.1-.594.331-.955.1-.758-.033-2.273.331l-.033-.199L9.74 38.8zm2.504-.43c.263-.066.428.033.461.298l-.56.132c-.23.067-.396-.033-.494-.298l.593-.132zM1.93 59.295l.033.198c.264-.066.363-.198.297-.463l-.033-.199c-.23.066-.33.199-.297.464zm.791 3.31c.066.232.198.331.461.265.264-.066.363-.198.297-.463l-.033-.199-.396.1-.329.297zm21.02 5.695c.264-.067.396.033.462.264l.033.2-.758.165c.066-.265.066-.464.033-.596l.23-.033z"/><path id="b" d="M100.588 9.237a64.217 64.217 0 0 1-5.831 3.708l.032.364c.132 0 .33-.1.593-.265.264-.033.396.1.429.331l.362-.198h.165v.165c.033.199-1.35 1.258-4.053 3.178l.198.398h-.165l-.428-.166c0 .133-.165.232-.56.265v.166l.428.53c-.132 0-.362-.034-.626-.166-.89.066-1.746.728-2.603 1.92l.198.364c.758-.695 1.186-1.06 1.318-1.06l.033.563c-.132 0-.33.1-.593.265l.494.696a14.99 14.99 0 0 1 2.932-2.517c.528.166.824.332.824.497l.395-.033c2.966-2.185 5.865-3.741 8.732-4.701l.032.364c-.527.795-.889 1.192-1.087 1.225.033.265.099.496.231.728.033.497-1.252 3.808-3.888 9.932-6.03 14.203-11.07 24.731-15.156 31.551 0 .133.1.331.264.563 1.021-.232 1.647-.497 1.91-.728h.166l.032.364.429-.033.362-.199c0 .1.132.166.396.133l.033.397c.032.364-.198.927-.626 1.721-.429.464-.89 1.457-1.351 2.947l.033.199.395-.033c1.647-1.854 2.866-3.642 3.723-5.43 4.777-1.424 8.402-2.781 10.939-4.138 2.569-.232 4.48-.894 5.798-1.987l-.033-.198-.988.298-.198.033-.033-.2c1.878-.264 3.163-.694 3.855-1.257 3.624-2.814 6.359-4.8 8.237-5.96 5.733-4.237 8.435-8.276 8.105-12.183-.033-.397-1.285-1.986-3.789-4.767-.033-.53.824-1.291 2.57-2.284l5.008-4.37c1.12-1.424 1.779-3.742 1.977-6.953l-.066-.729c-.198-2.218-1.812-4.005-4.843-5.396-1.812-1.225-5.041-1.887-9.687-2.02-3.756.265-8.797 1.656-15.024 4.106zm26.819.265l-.197.397-5.536-2.35c3.723.165 5.634.794 5.733 1.953zm-22.47 15.494c.396-2.086.824-3.245 1.285-3.51l4.184-9.402c-.032-.563.824-1.026 2.636-1.357l.593-.067.033.563c1.779-.298 2.867-.463 3.328-.496 3.295-.298 5.008.397 5.14 1.986l.395-.033-.066-.894.396-.033c.955.53 1.449 1.159 1.515 1.92.033.53-.23 1.192-.791 1.987-.263.033-.395-.166-.428-.53l-.395.033-.132 1.126c-1.68 2.549-2.866 3.84-3.624 3.906-.659.927-1.088 1.39-1.285 1.39-.527.63-1.944 1.722-4.283 3.212-.791.066-3.658 1.192-8.633 3.377-.23-.1-.527-.132-.79-.1l-.033-.364c-.066-.695.263-1.589.955-2.714zm22.997-11.588l.033.398c-.197 0-.56-.596-1.153-1.788l-.033-.364c.363-.034.758.563 1.153 1.754zm-36.505 4.503l.033.198c-.132 0-.33.1-.593.232h-.165l-.033-.364.758-.066zm12.091-.298l.033.563c-.197 0-.428.298-.724.794l-.033-.364c.329-.43.494-.761.494-.993h.23zm-1.878 3.907l.066.728-.197.033-.066-.728.197-.034zm-.461 1.357c-.033.629-.197.96-.494.993l-.198.033c.231-.43.33-.761.297-.993l.395-.033zm-.856 1.953l.033.199-.33.596-.395.033-.033-.199c.395-.033.593-.232.56-.629h.165zm-.824 1.755l-.132.96h-.165l-.066-.96h.363zm20.295.695l.824.497c.033.232-.099.397-.362.397-.363-.232-.626-.331-.824-.298v-.563l.362-.033zm-15.88 2.119l.033.364-.791.066-.033-.364.791-.066zm12.816 1.357c.56.265.824.497.857.696v.165c-.527.033-1.021-.232-1.483-.828l.626-.033zm-16.506 4.072c2.24-.198 5.766-1.258 10.609-3.178l1.219-.1c2.438-.198 4.25.266 5.469 1.424l.066.729c-.89 2.582-1.878 4.105-2.965 4.569l-4.975 4.039c-3.723 2.45-5.733 3.675-6.063 3.708-5.93 3.277-9.62 4.966-11.07 5.098l-.198.033c.132-.695 2.768-6.124 7.908-16.322zm5.37-2.151l.033.198-.791.066-.033-.198.791-.066zm17.956-.828l.132 1.523c-.197.364-.362.563-.56.596l-.23-2.583c.428.133.658.298.658.464zm-30.41 12.978c-.263 1.258-.527 1.92-.79 1.92v-.166c-.1-.595.164-1.191.79-1.754zm4.975 7.085c1.45-.265 5.436-2.35 11.96-6.29l.033.364c0 .165-.527.662-1.68 1.456-3.295 1.656-5.272 2.748-5.865 3.311-3.591 1.258-5.37 2.053-5.337 2.35-3.196 1.259-5.272 2.186-6.293 2.782-.231.033-.594-.067-1.022-.298-.066-.663.23-1.16.857-1.556.56-.033 1.087.033 1.581.231.593-.298 1.615-.629 3.097-1.026l-.033-.364-1.219.1c.132-.233 1.285-.762 3.427-1.623l.593-.066v.165c-1.021.1-1.581.398-1.713.927.033.232.164.364.428.331.824-.397 1.186-.695 1.186-.794zm-6.161-4.536v.166c.033.264-.099.43-.362.43l-.033-.199c0-.165.131-.33.395-.397zm9.357 2.582c-.461.034-1.35.43-2.669 1.16l-.197.032-.033-.364c.955-.1 1.812-.463 2.471-1.126.263-.033.395.067.428.298zm-9.687 2.715l.593-.066.034.199c-.132 0-.33.099-.594.231l-.395.033c-.033-.198.099-.33.362-.397zm-3.986 2.218l.395.166c-.132 1.159-.494 1.755-1.021 1.788-.461-.199-.857-.298-1.22-.265l-.032-.563c-.033-.199.099-.331.362-.397.264-.033.396.165.429.53.659-.828 1.021-1.259 1.087-1.259zM23.03 7.581c-2.24 1.656-4.81 3.278-7.677 4.867l.033.497c.198 0 .429-.133.758-.298.33-.033.527.1.527.43l.527-.298.264-.033.033.232c.033.232-1.78 1.655-5.37 4.205l.296.463-.263.033-.56-.198c0 .165-.231.264-.758.297l.033.265.593.662a2.1 2.1 0 0 1-.791-.165c-1.153.1-2.306.96-3.427 2.55l.297.463c.988-.894 1.548-1.358 1.713-1.358l.066.729c-.165 0-.428.132-.758.298l.626.927c1.186-1.292 2.471-2.384 3.921-3.278.725.199 1.087.397 1.087.662l.527-.033c3.855-2.88 7.677-4.933 11.466-6.224l.033.497c-.692 1.059-1.186 1.589-1.45 1.622.033.364.165.662.363.96.066.662-1.648 4.999-5.14 13.077C12.026 48.171 5.37 62.01 0 71.014c0 .166.132.43.297.729 1.317-.331 2.174-.63 2.536-.96l.297-.033.033.496.494-.033.527-.298c0 .166.198.232.527.199l.033.496c.033.497-.23 1.258-.856 2.285-.56.629-1.12 1.92-1.746 3.873l.033.232.494-.033c2.141-2.417 3.789-4.8 4.909-7.118 6.293-1.854 11.07-3.675 14.398-5.463 3.328-.298 5.897-1.158 7.61-2.615l-.032-.265-1.252.364-.297.033-.033-.265c2.438-.364 4.152-.927 5.074-1.655 4.778-3.708 8.369-6.323 10.807-7.88 7.545-5.561 11.103-10.925 10.675-16.023-.033-.53-1.713-2.616-4.975-6.257-.066-.696 1.087-1.689 3.393-3.013l6.557-5.794c1.45-1.887 2.34-4.933 2.636-9.137l-.1-.994c-.263-2.946-2.371-5.33-6.391-7.15-2.372-1.623-6.622-2.484-12.75-2.583-5.042.463-11.697 2.251-19.868 5.43zm35.32.43l-.198.497-7.314-3.078c4.876.198 7.38 1.059 7.512 2.582zM28.763 28.407c.494-2.715 1.054-4.271 1.68-4.635l5.47-12.35c-.066-.76 1.087-1.356 3.492-1.754l.79-.066.067.695c2.372-.364 3.822-.563 4.382-.629 4.349-.364 6.59.497 6.787 2.649l.494-.033-.099-1.258.527-.034c1.285.696 1.977 1.556 2.043 2.583.066.695-.297 1.556-1.12 2.582-.33.033-.527-.198-.56-.695l-.527.033-.132 1.49c-2.208 3.31-3.79 4.999-4.778 5.098-.89 1.225-1.45 1.854-1.68 1.887-.692.828-2.57 2.252-5.667 4.238-1.021.1-4.81 1.556-11.367 4.437-.33-.166-.659-.2-1.054-.166l-.033-.464c-.066-.96.33-2.152 1.285-3.608zm30.279-15.23l.032.464c-.263.033-.757-.761-1.482-2.35l-.033-.464c.461-.066.955.728 1.483 2.35zM10.938 19.07l.034.231c-.165 0-.429.133-.758.298l-.264.033-.033-.463 1.021-.1zm15.914-.398l.066.729c-.23.033-.56.364-.956 1.06l-.032-.497c.46-.563.691-.994.691-1.292h.231zm-2.438 5.165l.099.993-.264.033-.099-.993.264-.033zm-.626 1.788c-.066.828-.264 1.258-.692 1.291l-.264.033c.297-.563.462-.96.429-1.258l.527-.066zm-1.087 2.582l.033.232-.462.794-.494.034-.033-.232c.494-.033.725-.298.692-.795l.264-.033zm-1.12 2.318l-.132 1.225-.264.033-.099-1.225.495-.033zm26.72.894l1.087.662c.033.33-.132.53-.461.563-.462-.298-.824-.43-1.087-.43l-.066-.73.527-.066zm-20.922 2.814l.033.463-1.021.1-.033-.464 1.021-.1zm16.87 1.721c.724.331 1.087.662 1.12.927l.032.232c-.692.066-1.318-.298-1.91-1.093l.757-.066zm-21.746 5.364c2.965-.265 7.644-1.656 14.003-4.172l1.548-.132c3.229-.265 5.634.33 7.216 1.854l.098.993c-1.186 3.443-2.504 5.43-3.92 6.058l-6.59 5.264c-4.909 3.245-7.545 4.867-7.94 4.9-7.809 4.337-12.685 6.555-14.563 6.72l-.296.034c.263-.927 3.723-8.078 10.444-21.52zm7.117-2.815l.033.232-1.055.1-.033-.232 1.055-.1zm23.656-1.059l.165 1.953c-.231.53-.462.795-.725.795l-.297-3.443c.56.231.824.463.857.695zM13.179 54.527c-.33 1.689-.692 2.55-1.054 2.582l-.033-.231c-.066-.861.296-1.623 1.087-2.35zm6.59 9.336c1.91-.364 7.149-3.145 15.748-8.276l.033.463c.033.199-.725.828-2.207 1.92-4.382 2.152-6.952 3.642-7.71 4.404-4.744 1.655-7.084 2.681-7.05 3.078-4.218 1.689-6.985 2.914-8.303 3.675-.297.033-.758-.099-1.351-.364-.066-.86.296-1.556 1.153-2.119a4.174 4.174 0 0 1 2.108.331c.791-.397 2.142-.86 4.086-1.324l-.033-.496-1.548.132c.197-.265 1.68-.96 4.513-2.119l.791-.066.033.232c-1.318.099-2.076.53-2.24 1.225.032.297.197.463.527.43.955-.662 1.45-1.026 1.45-1.126zm-8.106-5.992l.033.232c.033.33-.131.53-.461.563l-.033-.232c-.033-.298.132-.497.461-.563zm12.323 3.377c-.626.066-1.78.563-3.526 1.556l-.263.033-.033-.497a4.99 4.99 0 0 0 3.229-1.49c.362-.066.56.1.593.398zm-12.784 3.575l.79-.066.034.265c-.198 0-.428.132-.758.298l-.494.033c-.033-.232.099-.43.428-.53zM5.963 67.77l.56.232c-.197 1.49-.625 2.251-1.383 2.317-.593-.265-1.12-.364-1.615-.33l-.066-.73c-.032-.297.132-.463.495-.562.33-.033.527.199.56.695.89-1.092 1.384-1.622 1.45-1.622zM152.118 2.715l-.429-.166-7.017 1.093a1.772 1.772 0 0 0-.956-.166c-.395.033-.988.166-1.878.398l-3.393 1.423.263.43c.165 0 .396-.099.692-.264l1.186.099-.165 1.126c-1.087.496-1.746 1.225-1.91 2.185-1.648.728-2.472 1.258-2.472 1.589l.033.198.264-.033.461-.231.527.629.066.86c.033.265-2.767 6.191-8.368 17.746-4.844 11.124-7.38 17.215-7.644 18.308-1.647.463-2.636 1.159-2.899 2.053.033.297.527.463 1.482.562l.033.43-.428.73.066.86c.033.463 1.252.794 3.624 1.06 0-.166.066-.233.231-.266.033.53-.099 1.59-.462 3.179l.264-.033c.988-1.358 1.45-2.285 1.417-2.815l.197-.033c.231-.033.494.265.791.861-.297.133-1.351 2.516-3.13 7.184l.264.43.263-.032c2.208-5.595 3.591-8.708 4.152-9.303 2.899-.265 7.874-.762 14.991-1.523l.428-.265c0 .165.099.232.263.199l.462-.034.428-.264c0 .165.099.231.264.198l5.37-.463c1.417-.133 2.109-.563 2.043-1.292-.033-.198.823-.43 2.537-.662.164 0 .395.033.725.133 0-.133.823-.265 2.536-.43.033-.895.33-1.391.857-1.424l-.033-.43c-.461.032-1.021.165-1.647.364-1.12-.067-1.845-.133-2.142-.265-.296.165-.527.265-.692.265l-3.756.132-.461.232c0-.133-.099-.199-.263-.166l-.198.033-.494.232c0-.132-.396-.232-1.186-.331l-.462.265-.922.066-.033-.232c4.81-.53 7.215-1.191 7.149-1.986.297-.033.462.132.495.43l1.416-.364-.033-.43-11.531.33c0 .166-.066.232-.231.266l-1.417-.133c-.362.033-.659.133-.889.331l-.527-.198c-1.45.132-2.537.298-3.262.53a22.122 22.122 0 0 0-3.295.032l-2.603.232-1.186-.132c-.066-.762 1.417-4.536 4.481-11.323.89-2.284 1.713-3.708 2.471-4.238.165 0 .395.034.725.166l1.845-.629.955.166c1.582-.133 3.427-.596 5.536-1.358.527-.033.922 0 1.186.1l1.416-.332 4.185-.364c1.779-.165 3.723-.563 5.799-1.192l-.033-.43c-.791.066-1.187-.066-1.22-.364-.065-.596-.625-.828-1.713-.729l-.033-.43 1.153-.331 3.032-.265-.033-.43c-.132 0-.725 0-1.878-.033l-.033-.464 1.186-.1c.296-.032.461-.198.428-.463-1.581.033-2.372-.033-2.372-.231-10.972.53-16.441.629-16.474.298-.164 0-.395.099-.692.297l-.296-.463c2.899-6.191 4.612-9.336 5.107-9.37.033.233-.099.63-.363 1.16l.033.198.461-.033c1.154-2.781 2.109-4.205 2.933-4.27 3.426-.299-.494-.53 6.886-1.69.296.133.527.2.659.166 2.899-.596 6.919-1.192 12.091-1.82l-.033-.431-2.767.265-.033-.43c.329-.034.593-.133.824-.332l.033.232c.164 0 .362-.1.626-.298.461-.033.823 0 1.087.133a14.731 14.731 0 0 1 2.306-.464l1.713-.165c.429-.265.626-.497.593-.729v-.198c-.428.033-.922 0-1.515-.1-.033-.231.099-.397.395-.463l3.196-.298 1.483-.364c0 .165.099.231.197.231.165 0 .363-.099.626-.298.758.1 1.219.133 1.318.1a6.391 6.391 0 0 1 2.043-1.325c-.329-.33-.494-.595-.527-.827l-2.142.198c0-.165-.099-.364-.23-.662 0-.198.461-.397 1.449-.596l.429.166.395-.232c0 .133.099.199.231.166l.395-.232c0 .132.099.199.231.165l.197-.033-.033-.43c-.296.033-1.087.033-2.339 0l-.395.265-.033-.232c-10.049.828-15.749 1.291-17.1 1.424-.165 0-.889 0-2.108-.033 0 .165-.132.264-.429.264l-.428-.198-1.483.364c-.329.033-.922 0-1.746-.066a1.673 1.673 0 0 1-.824.33c-.329.034 7.974-.463 7.71-.595l-1.285.364-.198.033c-.527.033-1.186.033-1.976-.066-.231.166-.56.298-1.055.331a1.427 1.427 0 0 1-.856-.165c-.363.099-1.417.364-3.196.695zm.527 1.324c0 .166.165.232.428.199l.033.43-.428.033a1.43 1.43 0 0 1-.857-.165c-.23.198-.527.298-.823.33h.131l-1.186-.132-.033-.198c1.45-.1 1.911-.265 2.735-.497zm1.087-.1l.231-.032.033.43-.659.066c0-.232.099-.397.395-.463zm2.537-.264l.033.232c-.494.033-1.12.165-1.878.397l-.231.033.198-.463 1.878-.2zm-18.714 2.152l.725-.066-.033-.43-.725.065.033.43zm5.173-.464l.263-.033.495.199c.033.298-.132.463-.429.463l-.725.067-.033-.232c-.032-.232.132-.364.429-.464zm16.572.96v.2l-1.482.131v-.198l1.482-.133zm-4.25.63l.033.231-.857.066-.033-.231.857-.067zm4.086.33l2.965-.496 1.515.066.033.232c-.725.066-1.351.199-1.878.397 0-.165-.296-.298-.889-.364l-2.339.662c-.462-.265-.692-.463-.692-.596l1.285.1zm-2.933.663c.297-.033.429.099.462.397l-1.252.132-.033-.43.823-.1zm-2.603-.133l.033.232 7.71-.364-.033-.232-7.71.364zm.462.596v.199l-1.681.165v-.198l1.681-.166zm-11.038 8.774l.033.231.494-.033c0-.165.033-.397.165-.695l-.033-.43c-.263.033-.494.33-.659.927zm-16.968 24.764l.033.198c.033.298-.131.464-.461.497l-.033-.199c-.033-.265.132-.397.461-.496zm-.428.926c.033.43-.263 1.49-.856 3.212l-.725.066c-.033-.298.362-1.357 1.12-3.211l.461-.066zm7.94 6.92c.033.232-.362.496-1.12.761l-1.449-.099-.462.033-.033-.43 3.064-.265zm1.417.132l.033.199-1.186.1-.033-.2 1.186-.099z"/><path id="c" d="M0 0h227v58H0V0z"/><path id="d" d="M25.92 36.015V42H3.285V12.3h7.74v23.715H25.92zM37.645 42h-7.74V12.3h7.74V42zm6.136-29.7h14.446c7.14.03 10.71 2.7 10.71 8.01 0 1.74-.51 3.21-1.53 4.41-1.02 1.2-2.52 1.95-4.5 2.25v.045c2.22.3 3.9 1.08 5.04 2.34 1.17 1.23 1.754 2.775 1.754 4.635 0 2.58-.914 4.56-2.744 5.94-1.83 1.38-4.515 2.07-8.055 2.07h-15.12V12.3zm13.05 12.15c2.79 0 4.185-1.08 4.185-3.24s-1.395-3.24-4.184-3.24h-5.58v6.48h5.58zm.765 12.105c1.38 0 2.416-.285 3.106-.855.72-.57 1.08-1.395 1.08-2.475 0-1.05-.36-1.845-1.08-2.385-.69-.57-1.725-.855-3.105-.855H51.25v6.57h6.346zm28.737-5.4h-4.635V42h-7.605V12.3h14.175c3.6 0 6.36.81 8.28 2.43 1.95 1.62 2.925 3.96 2.925 7.02 0 2.16-.495 3.96-1.485 5.4-.99 1.44-2.43 2.505-4.32 3.195L101.228 42h-8.55l-6.345-10.845zm-4.635-5.49h5.265c1.65 0 2.85-.3 3.6-.9.75-.6 1.125-1.56 1.125-2.88 0-1.29-.375-2.235-1.125-2.835-.75-.6-1.95-.9-3.6-.9h-5.265v7.515zm39.981 9.63h-10.26L109.349 42h-7.785l10.44-29.7h9.27L131.669 42h-7.965l-2.025-6.705zm-1.62-5.265l-2.16-7.11-1.305-4.68h-.09l-1.215 4.635-2.25 7.155h7.02zm26.854 1.125h-4.635V42h-7.605V12.3h14.175c3.6 0 6.36.81 8.28 2.43 1.95 1.62 2.925 3.96 2.925 7.02 0 2.16-.495 3.96-1.485 5.4-.99 1.44-2.43 2.505-4.32 3.195L161.808 42h-8.55l-6.345-10.845zm-4.635-5.49h5.265c1.65 0 2.85-.3 3.6-.9.75-.6 1.125-1.56 1.125-2.88 0-1.29-.375-2.235-1.125-2.835-.75-.6-1.95-.9-3.6-.9h-5.265v7.515zm36.513 5.49V42h-7.74V31.155L160.566 12.3h8.01l4.185 8.145 2.205 4.95 2.25-4.95 4.185-8.145h7.875l-10.485 18.855z"/><path id="e" d="M0 0h235v58H0V0z"/><path id="f" d="M16.92 12.3c3.69 0 6.525.855 8.505 2.565 1.98 1.68 2.97 4.11 2.97 7.29 0 3.03-.99 5.385-2.97 7.065-1.98 1.65-4.815 2.475-8.505 2.475h-5.895V42h-7.74V12.3H16.92zm-1.215 13.725c1.68 0 2.91-.315 3.69-.945.81-.66 1.215-1.665 1.215-3.015 0-1.32-.405-2.295-1.215-2.925-.78-.66-2.01-.99-3.69-.99h-4.68v7.875h4.68zm39.824 9.99V42H32.894V12.3h7.74v23.715h14.895zm29.731-6.12c0 4.17-1.11 7.305-3.33 9.405-2.22 2.1-5.535 3.15-9.945 3.15-4.38 0-7.695-1.05-9.945-3.15-2.22-2.1-3.33-5.235-3.33-9.405V12.3h7.785v17.73c0 2.13.45 3.72 1.35 4.77.9 1.05 2.28 1.575 4.14 1.575 3.72 0 5.58-2.115 5.58-6.345V12.3h7.695v17.595zm32.26-3.96V42h-5.4l-.225-3.51c-1.71 2.64-4.545 3.96-8.505 3.96-2.7 0-5.1-.585-7.2-1.755-2.07-1.2-3.69-2.94-4.86-5.22-1.17-2.31-1.755-5.07-1.755-8.28 0-3.18.6-5.91 1.8-8.19 1.2-2.31 2.91-4.08 5.13-5.31 2.22-1.23 4.845-1.845 7.875-1.845 3.39 0 6.12.6 8.19 1.8 2.07 1.2 3.705 3.135 4.905 5.805l-7.155 2.835c-.36-1.47-1.035-2.565-2.025-3.285-.99-.72-2.22-1.08-3.69-1.08-2.28 0-4.035.78-5.265 2.34-1.2 1.56-1.8 3.855-1.8 6.885 0 6.24 2.43 9.36 7.29 9.36 1.83 0 3.3-.42 4.41-1.26 1.14-.84 1.71-2.055 1.71-3.645v-.45h-7.38v-5.22h13.95zM130.69 42h-7.74V12.3h7.74V42zm32.911 0h-8.595l-9.225-16.065-2.25-4.5h-.045l.18 5.58V42h-6.84V12.3h8.595l9.225 16.065 2.25 4.5h.045l-.18-5.58V12.3h6.84V42zm17.74-30.15c2.82 0 5.22.42 7.2 1.26 2.01.84 3.87 2.205 5.58 4.095l-4.365 5.04c-.99-1.5-2.16-2.595-3.51-3.285-1.32-.72-2.91-1.08-4.77-1.08-1.56 0-2.76.27-3.6.81-.84.54-1.26 1.26-1.26 2.16 0 .75.435 1.365 1.305 1.845.9.45 2.415.87 4.545 1.26 4.11.75 7.035 1.845 8.775 3.285 1.77 1.44 2.655 3.465 2.655 6.075 0 1.89-.54 3.525-1.62 4.905-1.08 1.38-2.58 2.43-4.5 3.15-1.89.72-4.035 1.08-6.435 1.08-3.36 0-6.09-.405-8.19-1.215a14.393 14.393 0 0 1-5.445-3.825l3.96-5.4c1.17 1.62 2.49 2.76 3.96 3.42 1.47.66 3.24.99 5.31.99 1.65 0 2.88-.225 3.69-.675.84-.48 1.26-1.155 1.26-2.025 0-.69-.45-1.245-1.35-1.665-.87-.45-2.34-.87-4.41-1.26-2.55-.51-4.665-1.11-6.345-1.8-1.65-.72-2.94-1.68-3.87-2.88-.9-1.2-1.35-2.73-1.35-4.59 0-1.86.495-3.525 1.485-4.995 1.02-1.47 2.49-2.61 4.41-3.42 1.95-.84 4.245-1.26 6.885-1.26z"/></defs></svg>