<svg width="30" height="12" viewBox="0 0 30 12" xmlns="http://www.w3.org/2000/svg" xmlns:xlink="http://www.w3.org/1999/xlink"><title>Npm-logo</title><desc>Created using Figma</desc><use xlink:href="#a" fill="#2D9CDB"/><use xlink:href="#b" transform="translate(1.67 1.714)" fill="#FFF"/><use xlink:href="#c" transform="translate(10 1.714)" fill="#FFF"/><use xlink:href="#d" transform="translate(18.33 1.714)" fill="#FFF"/><defs><path id="a" d="M0 0h30v10.286H15V12H8.333v-1.714H0V0zm1.667 8.571H5V3.43h1.667v5.14h1.666V1.714H1.667v6.857zM10 1.714v8.572h3.333V8.57h3.334V1.714H10zm3.333 1.715H15v3.428h-1.667V3.43zm5-1.715v6.857h3.334V3.43h1.666v5.14H25V3.43h1.667v5.14h1.666V1.714h-10z"/><path id="b" d="M0 6.857h3.333V1.714H5v5.143h1.667V0H0v6.857z"/><path id="c" d="M0 0v8.571h3.333V6.857h3.334V0H0zm5 5.143H3.333V1.714H5v3.429z"/><path id="d" d="M0 0v6.857h3.333V1.714H5v5.143h1.667V1.714h1.666v5.143H10V0H0z"/></defs></svg>