<svg width="24" height="24" viewBox="0 0 24 24" xmlns="http://www.w3.org/2000/svg" xmlns:xlink="http://www.w3.org/1999/xlink"><title>Vector</title><desc>Created using Figma</desc><g transform="translate(1 1)"><use xlink:href="#a"/><use xlink:href="#b"/></g><defs><path id="a" d="M8.918 17.835a8.756 8.756 0 0 0 5.694-2.076l6.004 6.004a.792.792 0 0 0 .573.237.811.811 0 0 0 .573-1.384l-6.003-6.004a8.903 8.903 0 0 0 2.076-5.694A8.92 8.92 0 0 0 8.918 0C4.014 0 0 4.014 0 8.918c0 4.923 4.014 8.917 8.918 8.917zm0-16.214c4.033 0 7.296 3.283 7.296 7.297a7.29 7.29 0 0 1-7.296 7.296c-4.034 0-7.297-3.283-7.297-7.296 0-4.014 3.283-7.297 7.297-7.297z"/><path id="b" d="M14.612 15.759l.354-.354-.326-.325-.35.297.322.382zm1.147-1.147l-.384-.32-.293.35.323.324.354-.354zM8.918 0v.5V0zm0 18.335a9.256 9.256 0 0 0 6.017-2.194l-.646-.764a8.256 8.256 0 0 1-5.371 1.958v1zm5.34-2.223l6.004 6.004.707-.707-6.003-6.004-.707.708zm6.004 6.004c.254.254.58.384.927.384v-1a.293.293 0 0 1-.22-.09l-.707.706zm.927.384c.348 0 .674-.13.927-.384l-.707-.707a.293.293 0 0 1-.22.091v1zm.927-.384a1.312 1.312 0 0 0 0-1.854l-.707.707a.311.311 0 0 1 0 .44l.707.707zm0-1.854l-6.003-6.004-.708.708 6.004 6.004.707-.708zm-5.973-5.33a9.403 9.403 0 0 0 2.192-6.014h-1a8.403 8.403 0 0 1-1.96 5.374l.768.64zm2.192-6.014c0-5.2-4.218-9.418-9.417-9.418v1a8.42 8.42 0 0 1 8.417 8.418h1zM8.918-.5C3.738-.5-.5 3.738-.5 8.918h1C.5 4.29 4.29.5 8.918.5v-1zM-.5 8.918c0 5.2 4.238 9.417 9.418 9.417v-1C4.289 17.335.5 13.565.5 8.918h-1zM8.918 2.12c3.756 0 6.796 3.058 6.796 6.797h1c0-4.29-3.486-7.797-7.796-7.797v1zm6.796 6.797a6.791 6.791 0 0 1-6.796 6.796v1a7.791 7.791 0 0 0 7.796-7.796h-1zm-6.796 6.796c-3.757 0-6.797-3.058-6.797-6.796h-1c0 4.289 3.486 7.796 7.797 7.796v-1zM2.12 8.918c0-3.738 3.059-6.797 6.797-6.797v-1c-4.29 0-7.797 3.507-7.797 7.797h1z"/></defs></svg>