<svg width="681" height="290" viewBox="0 0 681 290" xmlns="http://www.w3.org/2000/svg" xmlns:xlink="http://www.w3.org/1999/xlink"><title>Vector 3.2</title><desc>Created using Figma</desc><use xlink:href="#a" transform="translate(1 1)" fill-opacity=".15"/><defs><path id="a" d="M680 0a1 1 0 0 0-2 0h2zm-2 287.5a1 1 0 0 0 2 0h-2zm-679 0a1 1 0 0 0 2 0h-2zM1 4a1 1 0 0 0-2 0h2zm677-2.503a1 1 0 0 0 2 0h-2zm2 5.99a1 1 0 0 0-2 0h2zm-2 2.995a1 1 0 0 0 2 0h-2zm2 5.99a1 1 0 0 0-2 0h2zm-2 2.994a1 1 0 0 0 2 0h-2zm2 5.99a1 1 0 0 0-2 0h2zm-2 2.995a1 1 0 0 0 2 0h-2zm2 5.99a1 1 0 0 0-2 0h2zm-2 2.994a1 1 0 0 0 2 0h-2zm2 5.99a1 1 0 0 0-2 0h2zm-2 2.994a1 1 0 0 0 2 0h-2zm2 5.99a1 1 0 0 0-2 0h2zm-2 2.995a1 1 0 0 0 2 0h-2zm2 5.99a1 1 0 0 0-2 0h2zm-2 2.994a1 1 0 0 0 2 0h-2zm2 5.99a1 1 0 0 0-2 0h2zm-2 2.994a1 1 0 0 0 2 0h-2zm2 5.99a1 1 0 0 0-2 0h2zm-2 2.995a1 1 0 0 0 2 0h-2zm2 5.99a1 1 0 0 0-2 0h2zm-2 2.994a1 1 0 0 0 2 0h-2zm2 5.99a1 1 0 0 0-2 0h2zm-2 2.995a1 1 0 0 0 2 0h-2zm2 5.989a1 1 0 0 0-2 0h2zm-2 2.995a1 1 0 0 0 2 0h-2zm2 5.989a1 1 0 0 0-2 0h2zm-2 2.995a1 1 0 1 0 2 0h-2zm2 5.99a1 1 0 0 0-2 0h2zm-2 2.995a1 1 0 0 0 2 0h-2zm2 5.989a1 1 0 0 0-2 0h2zm-2 2.995a1 1 0 0 0 2 0h-2zm2 5.99a1 1 0 1 0-2 0h2zm-2 2.994a1 1 0 1 0 2 0h-2zm2 5.99a1 1 0 0 0-2 0h2zm-2 2.995a1 1 0 0 0 2 0h-2zm2 5.989a1 1 0 0 0-2 0h2zm-2 2.995a1 1 0 0 0 2 0h-2zm2 5.99a1 1 0 1 0-2 0h2zm-2 2.995a1 1 0 0 0 2 0h-2zm2 5.989a1 1 0 0 0-2 0h2zm-2 2.995a1 1 0 0 0 2 0h-2zm2 5.989a1 1 0 0 0-2 0h2zm-2 2.995a1 1 0 1 0 2 0h-2zm2 5.99a1 1 0 0 0-2 0h2zm-2 2.995a1 1 0 0 0 2 0h-2zm2 5.989a1 1 0 0 0-2 0h2zm-2 2.995a1 1 0 0 0 2 0h-2zm2 5.99a1 1 0 1 0-2 0h2zm-2 2.994a1 1 0 1 0 2 0h-2zm2 5.99a1 1 0 0 0-2 0h2zm-2 2.995a1 1 0 0 0 2 0h-2zm2 5.989a1 1 0 0 0-2 0h2zm-2 2.995a1 1 0 0 0 2 0h-2zm2 5.99a1 1 0 1 0-2 0h2zm-2 2.995a1 1 0 0 0 2 0h-2zm2 5.989a1 1 0 0 0-2 0h2zm-2 2.995a1 1 0 0 0 2 0h-2zm2 5.989a1 1 0 0 0-2 0h2zm-2 2.995a1 1 0 1 0 2 0h-2zm2 5.99a1 1 0 0 0-2 0h2zm-2 2.995a1 1 0 0 0 2 0h-2zm2 5.989a1 1 0 0 0-2 0h2zm-2 2.995a1 1 0 0 0 2 0h-2zm2 5.99a1 1 0 1 0-2 0h2zM-1 5.477a1 1 0 1 0 2 0h-2zm2 5.906a1 1 0 1 0-2 0h2zm-2 2.953a1 1 0 1 0 2 0h-2zm2 5.906a1 1 0 1 0-2 0h2zm-2 2.953a1 1 0 1 0 2 0h-2zm2 5.907a1 1 0 1 0-2 0h2zm-2 2.953a1 1 0 1 0 2 0h-2zm2 5.906a1 1 0 0 0-2 0h2zm-2 2.953a1 1 0 0 0 2 0h-2zm2 5.906a1 1 0 1 0-2 0h2zm-2 2.953a1 1 0 1 0 2 0h-2zm2 5.907a1 1 0 1 0-2 0h2zm-2 2.953a1 1 0 1 0 2 0h-2zm2 5.906a1 1 0 1 0-2 0h2zm-2 2.953a1 1 0 1 0 2 0h-2zm2 5.906a1 1 0 0 0-2 0h2zm-2 2.954a1 1 0 0 0 2 0h-2zm2 5.906a1 1 0 1 0-2 0h2zm-2 2.953a1 1 0 1 0 2 0h-2zm2 5.906a1 1 0 1 0-2 0h2zm-2 2.953a1 1 0 1 0 2 0h-2zm2 5.907a1 1 0 1 0-2 0h2zm-2 2.953a1 1 0 0 0 2 0h-2zm2 5.906a1 1 0 0 0-2 0h2zm-2 2.953a1 1 0 0 0 2 0h-2zm2 5.906a1 1 0 0 0-2 0h2zm-2 2.953a1 1 0 1 0 2 0h-2zm2 5.907a1 1 0 1 0-2 0h2zm-2 2.953a1 1 0 0 0 2 0h-2zm2 5.906a1 1 0 0 0-2 0h2zm-2 2.953a1 1 0 0 0 2 0h-2zm2 5.906a1 1 0 0 0-2 0h2zm-2 2.954a1 1 0 0 0 2 0h-2zm2 5.906a1 1 0 0 0-2 0h2zm-2 2.953a1 1 0 0 0 2 0h-2zm2 5.906a1 1 0 0 0-2 0h2zm-2 2.953a1 1 0 1 0 2 0h-2zm2 5.907a1 1 0 1 0-2 0h2zm-2 2.953a1 1 0 0 0 2 0h-2zm2 5.906a1 1 0 0 0-2 0h2zm-2 2.953a1 1 0 0 0 2 0h-2zm2 5.906a1 1 0 0 0-2 0h2zm-2 2.953a1 1 0 1 0 2 0h-2zm2 5.907a1 1 0 1 0-2 0h2zm-2 2.953a1 1 0 0 0 2 0h-2zm2 5.906a1 1 0 0 0-2 0h2zm-2 2.953a1 1 0 0 0 2 0h-2zm2 5.906a1 1 0 0 0-2 0h2zm-2 2.954a1 1 0 0 0 2 0h-2zm2 5.906a1 1 0 0 0-2 0h2zm-2 2.953a1 1 0 0 0 2 0h-2zm2 5.906a1 1 0 0 0-2 0h2zm-2 2.953a1 1 0 1 0 2 0h-2zm2 5.907a1 1 0 1 0-2 0h2zm-2 2.953a1 1 0 0 0 2 0h-2zm2 5.906a1 1 0 0 0-2 0h2zm-2 2.953a1 1 0 0 0 2 0h-2zm2 5.906a1 1 0 0 0-2 0h2zm-2 2.953a1 1 0 1 0 2 0h-2zm2 5.907a1 1 0 1 0-2 0h2zm-2 2.953a1 1 0 0 0 2 0h-2zm2 5.906a1 1 0 0 0-2 0h2zm-2 2.953a1 1 0 0 0 2 0h-2zm2 5.906a1 1 0 0 0-2 0h2zM678 0v1.497h2V0h-2zm0 7.487v2.995h2V7.487h-2zm0 8.984v2.995h2v-2.995h-2zm0 8.985v2.995h2v-2.995h-2zm0 8.984v2.995h2V34.44h-2zm0 8.985v2.994h2v-2.994h-2zm0 8.984v2.995h2v-2.995h-2zm0 8.984v2.995h2v-2.995h-2zm0 8.985v2.994h2v-2.994h-2zm0 8.984v2.995h2v-2.995h-2zm0 8.984v2.995h2v-2.995h-2zm0 8.985v2.995h2v-2.995h-2zm0 8.984v2.995h2v-2.995h-2zm0 8.984v2.995h2v-2.995h-2zm0 8.985v2.995h2v-2.995h-2zm0 8.984v2.995h2v-2.995h-2zm0 8.985v2.994h2v-2.994h-2zm0 8.984v2.995h2v-2.995h-2zm0 8.984v2.995h2v-2.995h-2zm0 8.985v2.995h2v-2.995h-2zm0 8.984v2.995h2v-2.995h-2zm0 8.984v2.995h2v-2.995h-2zm0 8.985v2.995h2v-2.995h-2zm0 8.984v2.995h2v-2.995h-2zm0 8.985v2.994h2v-2.994h-2zm0 8.984v2.995h2v-2.995h-2zm0 8.984v2.995h2v-2.995h-2zm0 8.985v2.995h2v-2.995h-2zm0 8.984v2.995h2v-2.995h-2zm0 8.984v2.995h2v-2.995h-2zm0 8.985v2.995h2v-2.995h-2zm0 8.984v2.995h2v-2.995h-2zm0 8.985v1.497h2v-1.497h-2zM-1 4v1.477h2V4h-2zm0 7.383v2.953h2v-2.953h-2zm0 8.86v2.952h2v-2.953h-2zm0 8.859v2.953h2v-2.953h-2zm0 8.859v2.953h2v-2.953h-2zm0 8.86v2.952h2V46.82h-2zm0 8.859v2.953h2V55.68h-2zm0 8.86v2.952h2V64.54h-2zm0 8.858v2.954h2v-2.954h-2zm0 8.86v2.953h2v-2.953h-2zm0 8.86v2.952h2v-2.953h-2zm0 8.859v2.953h2v-2.953h-2zm0 8.859v2.953h2v-2.953h-2zm0 8.859v2.953h2v-2.953h-2zm0 8.86v2.953h2v-2.953h-2zm0 8.859v2.953h2v-2.953h-2zm0 8.859v2.954h2v-2.954h-2zm0 8.86v2.953h2v-2.953h-2zm0 8.859v2.953h2v-2.953h-2zm0 8.86v2.953h2v-2.953h-2zm0 8.859v2.953h2v-2.953h-2zm0 8.859v2.953h2v-2.953h-2zm0 8.86v2.953h2v-2.953h-2zm0 8.859v2.953h2v-2.953h-2zm0 8.859v2.954h2v-2.954h-2zm0 8.86v2.953h2v-2.953h-2zm0 8.859v2.953h2v-2.953h-2zm0 8.86v2.953h2v-2.953h-2zm0 8.859v2.953h2v-2.953h-2zm0 8.859v2.953h2v-2.953h-2zm0 8.86v2.953h2v-2.953h-2zm0 8.859v2.953h2v-2.953h-2zm0 8.859v1.477h2v-1.477h-2z"/></defs></svg>