<svg width="220" height="144" viewBox="0 0 220 144" xmlns="http://www.w3.org/2000/svg" xmlns:xlink="http://www.w3.org/1999/xlink"><title>Page 1</title><desc>Created using Figma</desc><use xlink:href="#a" transform="rotate(-5 169.756 -1457.094)" fill-opacity=".15"/><use xlink:href="#b" transform="rotate(176 70.193 74.322)" fill-opacity=".12"/><use xlink:href="#c" transform="rotate(-8.5 481.635 56.088)" fill-opacity=".25"/><defs><path id="a" d="M91.914-.996C69.207.973 51.14 12.127 38.019 24.128c-13.12 11.997-21.352 24.89-24.412 30.468l1.754.961c2.982-5.437 11.088-18.139 24.007-29.954C52.285 13.791 69.955 2.915 92.086.996l-.172-1.992zM13.607 54.596c-3.032 5.527-6.879 12.578-9.86 23.793-2.978 11.205-5.084 26.527-4.702 48.628l2-.034c-.38-21.96 1.714-37.092 4.635-48.08 2.918-10.977 6.67-17.858 9.68-23.346l-1.753-.961z"/><path id="b" d="M6 0l5.196 9H.804L6 0z"/><path id="c" d="M6.99 30.61c-1.22 0-2.35-.21-3.39-.63-1.04-.4-1.88-1.02-2.52-1.86-.64-.82-.96-1.82-.96-3 0-1.48.46-2.54 1.38-3.18.92-.66 2-.99 3.24-.99-.64.66-1.13 1.35-1.47 2.07-.32.72-.48 1.42-.48 2.1 0 1.08.41 2 1.23 2.76.84.76 2 1.14 3.48 1.14.94 0 1.83-.16 2.67-.48.86-.3 1.55-.76 2.07-1.38.54-.62.81-1.35.81-2.19 0-.74-.21-1.4-.63-1.98-.42-.58-.94-1.08-1.56-1.5-.6-.42-1.42-.91-2.46-1.47-1.1-.6-1.99-1.13-2.67-1.59a6.508 6.508 0 0 1-1.71-1.68c-.46-.68-.69-1.46-.69-2.34 0-1.14.37-2.34 1.11-3.6.74-1.26 1.78-2.31 3.12-3.15 1.34-.84 2.84-1.26 4.5-1.26 2.5 0 3.75 1.05 3.75 3.15 0 1.02-.25 2.16-.75 3.42-.48 1.24-1.03 2.34-1.65 3.3-.88-.18-1.32-.69-1.32-1.53 0-.38.07-.81.21-1.29.16-.5.38-1.09.66-1.77.28-.76.49-1.36.63-1.8.14-.44.21-.84.21-1.2 0-.38-.12-.66-.36-.84-.22-.2-.63-.3-1.23-.3-1.2 0-2.3.34-3.3 1.02-1 .68-1.8 1.51-2.4 2.49-.58.96-.87 1.85-.87 2.67 0 .6.18 1.14.54 1.62.36.48.81.9 1.35 1.26.56.34 1.31.76 2.25 1.26 1.18.64 2.12 1.2 2.82 1.68.72.48 1.33 1.1 1.83 1.86.52.76.78 1.67.78 2.73 0 1.32-.4 2.47-1.2 3.45-.78.98-1.81 1.73-3.09 2.25-1.26.52-2.57.78-3.93.78zm12.761-1.23c-.92 0-1.64-.27-2.16-.81-.52-.52-.78-1.3-.78-2.34 0-.78.15-1.77.45-2.97.3-1.22.7-2.51 1.2-3.87-.52-.1-.87-.19-1.05-.27v-.93c.48.06.96.11 1.44.15.9-2.26 1.86-4.2 2.88-5.82 1.04-1.62 1.88-2.43 2.52-2.43.22 0 .41.08.57.24.18.16.27.37.27.63 0 .32-.14.75-.42 1.29-.28.54-.74 1.36-1.38 2.46-.88 1.48-1.57 2.72-2.07 3.72 2.3 0 4.13-.07 5.49-.21v.99c-2.36.24-4.37.36-6.03.36-1.04 2.46-1.56 4.47-1.56 6.03 0 .82.13 1.4.39 1.74.26.34.67.51 1.23.51 1 0 2.02-.45 3.06-1.35 1.06-.92 1.98-2.16 2.76-3.72l.42.3c-.82 1.86-1.88 3.38-3.18 4.56-1.3 1.16-2.65 1.74-4.05 1.74zm7.593.03c-.7 0-1.28-.23-1.74-.69-.48-.46-.72-1.11-.72-1.95 0-1.16.42-2.46 1.26-3.9a12.74 12.74 0 0 1 3.27-3.66c1.32-1 2.64-1.5 3.96-1.5.88 0 1.61.23 2.19.69.6.44.9 1.01.9 1.71 0 .92-.57 1.4-1.71 1.44.72.22 1.08.52 1.08.9 0 .14-.07.35-.21.63-.14.28-.3.57-.48.87-.32.52-.57.98-.75 1.38-.18.38-.27.74-.27 1.08 0 .3.07.56.21.78.16.2.39.3.69.3.56 0 1.27-.39 2.13-1.17.88-.78 1.73-1.95 2.55-3.51l.57.57c-.74 1.66-1.66 3-2.76 4.02-1.1 1-2.21 1.5-3.33 1.5-.8 0-1.42-.27-1.86-.81-.42-.52-.63-1.12-.63-1.8-.9 1.08-1.67 1.87-2.31 2.37-.64.5-1.32.75-2.04.75zm.63-1.53c.7 0 1.51-.5 2.43-1.5.94-1.02 2-2.34 3.18-3.96l.6-.81c.06-.1.14-.15.24-.15l.12.03c.1-.32.15-.69.15-1.11 0-1.04-.42-1.56-1.26-1.56-.88 0-1.8.47-2.76 1.41-.96.94-1.77 2.06-2.43 3.36-.64 1.3-.96 2.41-.96 3.33 0 .34.05.59.15.75.12.14.3.21.54.21zm16.57.9c-.74 0-1.34-.2-1.8-.6-.46-.38-.69-.9-.69-1.56 0-.38.07-.79.21-1.23.16-.46.39-1.01.69-1.65.26-.56.46-1.03.6-1.41.14-.4.21-.75.21-1.05 0-.76-.5-1.4-1.5-1.92-.4 1-.87 2.01-1.41 3.03-.52 1.02-.99 1.88-1.41 2.58l-.45-.87c.92-1.64 1.73-3.45 2.43-5.43-.2-.2-.3-.47-.3-.81 0-.52.16-1.01.48-1.47.32-.46.63-.69.93-.69.2 0 .36.12.48.36.14.24.21.44.21.6 0 .08-.05.26-.15.54-.08.26-.14.45-.18.57.02.14.1.28.24.42.14.12.4.3.78.54.7.46 1.24.91 1.62 1.35.4.42.6.99.6 1.71 0 .44-.08.88-.24 1.32-.14.44-.36.97-.66 1.59-.44.88-.66 1.51-.66 1.89 0 .46.25.69.75.69.6 0 1.25-.24 1.95-.72.72-.48 1.37-1.06 1.95-1.74.6-.7 1.04-1.35 1.32-1.95l.72.54c-.4.9-.96 1.76-1.68 2.58-.72.82-1.53 1.49-2.43 2.01-.88.52-1.75.78-2.61.78zm8.079.6c-.92 0-1.64-.27-2.16-.81-.52-.52-.78-1.3-.78-2.34 0-.78.15-1.77.45-2.97.3-1.22.7-2.51 1.2-3.87-.52-.1-.87-.19-1.05-.27v-.93c.48.06.96.11 1.44.15.9-2.26 1.86-4.2 2.88-5.82 1.04-1.62 1.88-2.43 2.52-2.43.22 0 .41.08.57.24.18.16.27.37.27.63 0 .32-.14.75-.42 1.29-.28.54-.74 1.36-1.38 2.46-.88 1.48-1.57 2.72-2.07 3.72 2.3 0 4.13-.07 5.49-.21v.99c-2.36.24-4.37.36-6.03.36-1.04 2.46-1.56 4.47-1.56 6.03 0 .82.13 1.4.39 1.74.26.34.67.51 1.23.51 1 0 2.02-.45 3.06-1.35 1.06-.92 1.98-2.16 2.76-3.72l.42.3c-.82 1.86-1.88 3.38-3.18 4.56-1.3 1.16-2.65 1.74-4.05 1.74zm15.085-.24c-.42 0-.73-.32-.93-.96-.2-.64-.3-1.45-.3-2.43 0-1.8.56-4.24 1.68-7.32 1.14-3.1 2.44-5.85 3.9-8.25 1.46-2.4 2.65-3.6 3.57-3.6.4 0 .71.22.93.66.24.44.36.93.36 1.47 0 .92-.34 2.15-1.02 3.69-.66 1.54-1.54 3.03-2.64 4.47-1.08 1.42-2.2 2.47-3.36 3.15-.68 1.8-1.02 3.5-1.02 5.1l.03.63c.04-.06.13-.28.27-.66.4-1.04.82-1.98 1.26-2.82.44-.84 1.04-1.62 1.8-2.34.78-.74 1.68-1.11 2.7-1.11.92 0 1.59.3 2.01.9.42.58.63 1.27.63 2.07 0 .46-.06.89-.18 1.29s-.3.91-.54 1.53c-.04.08-.12.27-.24.57-.1.28-.18.54-.24.78-.04.22-.06.42-.06.6 0 .64.27.96.81.96.44 0 .96-.22 1.56-.66.6-.44 1.19-1.03 1.77-1.77.58-.74 1.08-1.54 1.5-2.4l.48.51c-.74 1.64-1.64 2.97-2.7 3.99-1.04 1.02-2.16 1.53-3.36 1.53-.74 0-1.32-.2-1.74-.6-.4-.38-.6-.88-.6-1.5 0-.4.14-1.12.42-2.16.3-.98.45-1.71.45-2.19 0-.84-.36-1.26-1.08-1.26-.72 0-1.33.38-1.83 1.14-.48.74-1.03 1.84-1.65 3.3-.5 1.24-.94 2.16-1.32 2.76-.38.62-.82.93-1.32.93zm2.82-11.04c.82-.74 1.61-1.7 2.37-2.88s1.38-2.32 1.86-3.42c.48-1.12.72-1.92.72-2.4-.24.1-.67.59-1.29 1.47-.62.86-1.27 1.95-1.95 3.27a28.51 28.51 0 0 0-1.71 3.96zm14.104 11.22c-1.26 0-2.24-.34-2.94-1.02-.7-.68-1.05-1.55-1.05-2.61 0-1.16.39-2.41 1.17-3.75.78-1.36 1.78-2.49 3-3.39 1.22-.92 2.42-1.38 3.6-1.38.62 0 1.14.16 1.56.48.42.3.63.81.63 1.53 0 .96-.37 1.87-1.11 2.73-.74.84-1.7 1.53-2.88 2.07-1.16.54-2.35.88-3.57 1.02-.04.2-.06.43-.06.69 0 .52.14 1.04.42 1.56.3.52.93.78 1.89.78 1.22 0 2.46-.49 3.72-1.47 1.28-1 2.31-2.24 3.09-3.72l.6.48c-.8 1.8-1.95 3.25-3.45 4.35-1.48 1.1-3.02 1.65-4.62 1.65zm-1.26-5.43c.72-.08 1.52-.37 2.4-.87.9-.5 1.66-1.11 2.28-1.83.62-.74.93-1.46.93-2.16 0-.22-.04-.37-.12-.45-.08-.08-.21-.12-.39-.12-.58 0-1.22.28-1.92.84-.68.54-1.31 1.23-1.89 2.07-.58.84-1.01 1.68-1.29 2.52zm13.555 4.89c-.74 0-1.34-.2-1.8-.6-.46-.38-.69-.9-.69-1.56 0-.38.07-.79.21-1.23.16-.46.39-1.01.69-1.65.26-.56.46-1.03.6-1.41.14-.4.21-.75.21-1.05 0-.76-.5-1.4-1.5-1.92-.4 1-.87 2.01-1.41 3.03-.52 1.02-.99 1.88-1.41 2.58l-.45-.87c.92-1.64 1.73-3.45 2.43-5.43-.2-.2-.3-.47-.3-.81 0-.52.16-1.01.48-1.47.32-.46.63-.69.93-.69.2 0 .36.12.48.36.14.24.21.44.21.6 0 .08-.05.26-.15.54-.08.26-.14.45-.18.57.02.14.1.28.24.42.14.12.4.3.78.54.7.46 1.24.91 1.62 1.35.4.42.6.99.6 1.71 0 .44-.08.88-.24 1.32-.14.44-.36.97-.66 1.59-.44.88-.66 1.51-.66 1.89 0 .46.25.69.75.69.6 0 1.25-.24 1.95-.72.72-.48 1.37-1.06 1.95-1.74.6-.7 1.04-1.35 1.32-1.95l.72.54c-.4.9-.96 1.76-1.68 2.58-.72.82-1.53 1.49-2.43 2.01-.88.52-1.75.78-2.61.78zm8.828.54c-1.26 0-2.24-.34-2.94-1.02-.7-.68-1.05-1.55-1.05-2.61 0-1.16.39-2.41 1.17-3.75.78-1.36 1.78-2.49 3-3.39 1.22-.92 2.42-1.38 3.6-1.38.62 0 1.14.16 1.56.48.42.3.63.81.63 1.53 0 .96-.37 1.87-1.11 2.73-.74.84-1.7 1.53-2.88 2.07-1.16.54-2.35.88-3.57 1.02-.04.2-.06.43-.06.69 0 .52.14 1.04.42 1.56.3.52.93.78 1.89.78 1.22 0 2.46-.49 3.72-1.47 1.28-1 2.31-2.24 3.09-3.72l.6.48c-.8 1.8-1.95 3.25-3.45 4.35-1.48 1.1-3.02 1.65-4.62 1.65zm-1.26-5.43c.72-.08 1.52-.37 2.4-.87.9-.5 1.66-1.11 2.28-1.83.62-.74.93-1.46.93-2.16 0-.22-.04-.37-.12-.45-.08-.08-.21-.12-.39-.12-.58 0-1.22.28-1.92.84-.68.54-1.31 1.23-1.89 2.07-.58.84-1.01 1.68-1.29 2.52zm9.835.87c0-.64.15-1.43.45-2.37.3-.94.69-2.04 1.17-3.3 1.56-4.02 2.87-7.14 3.93-9.36 1.08-2.22 2.03-3.33 2.85-3.33.22 0 .41.09.57.27.18.18.27.39.27.63 0 .52-.57 1.99-1.71 4.41-1.14 2.4-2.44 4.94-3.9 7.62-1.44 2.66-2.53 4.51-3.27 5.55l-.36-.12zm-.63 3.54c-.34 0-.63-.09-.87-.27-.22-.16-.33-.41-.33-.75 0-.36.2-.68.6-.96.42-.3.87-.45 1.35-.45.68 0 1.02.31 1.02.93 0 .36-.19.7-.57 1.02-.36.32-.76.48-1.2.48z"/></defs></svg>